<svg width="134" height="128" viewBox="0 0 134 128" fill="none" xmlns="http://www.w3.org/2000/svg">
<path d="M51.574 102.701C57.1752 102.701 61.7156 107.243 61.7156 112.844C61.7154 118.445 57.175 122.985 51.574 122.985C45.9727 122.985 41.4316 118.445 41.4314 112.844C41.4314 107.242 45.9726 102.701 51.574 102.701Z" stroke="#C7C7C7" stroke-width="10" stroke-linecap="round" stroke-linejoin="round"/>
<path d="M108.138 102.701C113.739 102.701 118.28 107.243 118.28 112.844C118.279 118.445 113.739 122.985 108.138 122.985C102.537 122.985 97.9956 118.445 97.9954 112.844C97.9954 107.242 102.537 102.701 108.138 102.701Z" stroke="#C7C7C7" stroke-width="10" stroke-linecap="round" stroke-linejoin="round"/>
<mask id="path-3-outside-1_2248_29931" maskUnits="userSpaceOnUse" x="0.436035" y="0" width="134" height="98" fill="black">
<rect fill="white" x="0.436035" width="134" height="98"/>
<path d="M10.436 10C18.4686 10 31.0048 10 31.0048 10L44.7858 78.8539C45.256 81.2213 46.544 83.3479 48.4242 84.8615C50.3043 86.375 52.657 87.179 55.0702 87.1328H105.052C107.465 87.179 109.818 86.375 111.698 84.8615C113.578 83.3479 114.866 81.2213 115.337 78.8539L123.564 35.7109C123.564 35.7109 70.2855 35.7109 36.147 35.7109"/>
</mask>
<path d="M10.436 0C4.91319 0 0.436035 4.47715 0.436035 10C0.436035 15.5228 4.91319 20 10.436 20V0ZM31.0048 10L40.8103 8.03743C39.8749 3.36385 35.771 0 31.0048 0V10ZM44.7858 78.8539L54.5942 76.9057C54.5933 76.9009 54.5923 76.8961 54.5913 76.8913L44.7858 78.8539ZM55.0702 87.1328V77.1328C55.0063 77.1328 54.9424 77.1334 54.8786 77.1346L55.0702 87.1328ZM105.052 87.1328L105.244 77.1346C105.18 77.1334 105.116 77.1328 105.052 77.1328V87.1328ZM115.337 78.8539L125.145 80.802C125.15 80.7771 125.155 80.7521 125.16 80.7271L115.337 78.8539ZM123.564 35.7109L133.387 37.5842C133.945 34.6567 133.169 31.6327 131.269 29.3365C129.369 27.0402 126.544 25.7109 123.564 25.7109V35.7109ZM36.147 25.7109C30.6241 25.7109 26.147 30.1881 26.147 35.7109C26.147 41.2338 30.6241 45.7109 36.147 45.7109V25.7109ZM10.436 10V20C10.4517 20 10.4674 20 10.4832 20C10.4989 20 10.5146 20 10.5304 20C10.5461 20 10.5619 20 10.5777 20C10.5935 20 10.6093 20 10.6251 20C10.6409 20 10.6568 20 10.6726 20C10.6885 20 10.7044 20 10.7203 20C10.7361 20 10.7521 20 10.768 20C10.7839 20 10.7998 20 10.8158 20C10.8318 20 10.8477 20 10.8637 20C10.8797 20 10.8957 20 10.9117 20C10.9277 20 10.9438 20 10.9598 20C10.9759 20 10.9919 20 11.008 20C11.0241 20 11.0402 20 11.0563 20C11.0724 20 11.0886 20 11.1047 20C11.1209 20 11.137 20 11.1532 20C11.1694 20 11.1856 20 11.2018 20C11.218 20 11.2342 20 11.2504 20C11.2667 20 11.2829 20 11.2992 20C11.3154 20 11.3317 20 11.348 20C11.3643 20 11.3806 20 11.397 20C11.4133 20 11.4296 20 11.446 20C11.4623 20 11.4787 20 11.4951 20C11.5115 20 11.5279 20 11.5443 20C11.5607 20 11.5771 20 11.5935 20C11.61 20 11.6264 20 11.6429 20C11.6594 20 11.6759 20 11.6924 20C11.7089 20 11.7254 20 11.7419 20C11.7584 20 11.775 20 11.7915 20C11.8081 20 11.8246 20 11.8412 20C11.8578 20 11.8744 20 11.891 20C11.9076 20 11.9242 20 11.9408 20C11.9575 20 11.9741 20 11.9908 20C12.0074 20 12.0241 20 12.0408 20C12.0575 20 12.0742 20 12.0909 20C12.1076 20 12.1243 20 12.141 20C12.1578 20 12.1745 20 12.1913 20C12.208 20 12.2248 20 12.2416 20C12.2584 20 12.2752 20 12.292 20C12.3088 20 12.3256 20 12.3425 20C12.3593 20 12.3762 20 12.393 20C12.4099 20 12.4267 20 12.4436 20C12.4605 20 12.4774 20 12.4943 20C12.5112 20 12.5281 20 12.5451 20C12.562 20 12.5789 20 12.5959 20C12.6129 20 12.6298 20 12.6468 20C12.6638 20 12.6808 20 12.6978 20C12.7148 20 12.7318 20 12.7488 20C12.7658 20 12.7829 20 12.7999 20C12.817 20 12.834 20 12.8511 20C12.8681 20 12.8852 20 12.9023 20C12.9194 20 12.9365 20 12.9536 20C12.9707 20 12.9878 20 13.005 20C13.0221 20 13.0393 20 13.0564 20C13.0736 20 13.0907 20 13.1079 20C13.1251 20 13.1423 20 13.1594 20C13.1766 20 13.1938 20 13.2111 20C13.2283 20 13.2455 20 13.2627 20C13.28 20 13.2972 20 13.3145 20C13.3317 20 13.349 20 13.3663 20C13.3835 20 13.4008 20 13.4181 20C13.4354 20 13.4527 20 13.47 20C13.4873 20 13.5047 20 13.522 20C13.5393 20 13.5567 20 13.574 20C13.5914 20 13.6087 20 13.6261 20C13.6434 20 13.6608 20 13.6782 20C13.6956 20 13.713 20 13.7304 20C13.7478 20 13.7652 20 13.7826 20C13.8001 20 13.8175 20 13.8349 20C13.8524 20 13.8698 20 13.8873 20C13.9047 20 13.9222 20 13.9396 20C13.9571 20 13.9746 20 13.9921 20C14.0096 20 14.0271 20 14.0446 20C14.0621 20 14.0796 20 14.0971 20C14.1146 20 14.1322 20 14.1497 20C14.1672 20 14.1848 20 14.2023 20C14.2199 20 14.2374 20 14.255 20C14.2726 20 14.2901 20 14.3077 20C14.3253 20 14.3429 20 14.3605 20C14.3781 20 14.3957 20 14.4133 20C14.4309 20 14.4485 20 14.4662 20C14.4838 20 14.5014 20 14.5191 20C14.5367 20 14.5543 20 14.572 20C14.5896 20 14.6073 20 14.625 20C14.6426 20 14.6603 20 14.678 20C14.6957 20 14.7134 20 14.731 20C14.7487 20 14.7664 20 14.7841 20C14.8018 20 14.8196 20 14.8373 20C14.855 20 14.8727 20 14.8904 20C14.9082 20 14.9259 20 14.9436 20C14.9614 20 14.9791 20 14.9969 20C15.0146 20 15.0324 20 15.0502 20C15.0679 20 15.0857 20 15.1035 20C15.1212 20 15.139 20 15.1568 20C15.1746 20 15.1924 20 15.2102 20C15.228 20 15.2458 20 15.2636 20C15.2814 20 15.2992 20 15.317 20C15.3348 20 15.3527 20 15.3705 20C15.3883 20 15.4062 20 15.424 20C15.4418 20 15.4597 20 15.4775 20C15.4954 20 15.5132 20 15.5311 20C15.5489 20 15.5668 20 15.5846 20C15.6025 20 15.6204 20 15.6382 20C15.6561 20 15.674 20 15.6919 20C15.7098 20 15.7276 20 15.7455 20C15.7634 20 15.7813 20 15.7992 20C15.8171 20 15.835 20 15.8529 20C15.8708 20 15.8887 20 15.9066 20C15.9245 20 15.9425 20 15.9604 20C15.9783 20 15.9962 20 16.0141 20C16.0321 20 16.05 20 16.0679 20C16.0859 20 16.1038 20 16.1217 20C16.1397 20 16.1576 20 16.1756 20C16.1935 20 16.2115 20 16.2294 20C16.2474 20 16.2653 20 16.2833 20C16.3012 20 16.3192 20 16.3371 20C16.3551 20 16.3731 20 16.391 20C16.409 20 16.427 20 16.4449 20C16.4629 20 16.4809 20 16.4989 20C16.5168 20 16.5348 20 16.5528 20C16.5708 20 16.5888 20 16.6067 20C16.6247 20 16.6427 20 16.6607 20C16.6787 20 16.6967 20 16.7147 20C16.7326 20 16.7506 20 16.7686 20C16.7866 20 16.8046 20 16.8226 20C16.8406 20 16.8586 20 16.8766 20C16.8946 20 16.9126 20 16.9306 20C16.9486 20 16.9666 20 16.9846 20C17.0026 20 17.0206 20 17.0386 20C17.0567 20 17.0747 20 17.0927 20C17.1107 20 17.1287 20 17.1467 20C17.1647 20 17.1827 20 17.2007 20C17.2187 20 17.2368 20 17.2548 20C17.2728 20 17.2908 20 17.3088 20C17.3268 20 17.3448 20 17.3628 20C17.3809 20 17.3989 20 17.4169 20C17.4349 20 17.4529 20 17.4709 20C17.4889 20 17.5069 20 17.525 20C17.543 20 17.561 20 17.579 20C17.597 20 17.615 20 17.633 20C17.651 20 17.6691 20 17.6871 20C17.7051 20 17.7231 20 17.7411 20C17.7591 20 17.7771 20 17.7951 20C17.8131 20 17.8311 20 17.8491 20C17.8672 20 17.8852 20 17.9032 20C17.9212 20 17.9392 20 17.9572 20C17.9752 20 17.9932 20 18.0112 20C18.0292 20 18.0472 20 18.0652 20C18.0832 20 18.1012 20 18.1191 20C18.1371 20 18.1551 20 18.1731 20C18.1911 20 18.2091 20 18.2271 20C18.2451 20 18.2631 20 18.281 20C18.299 20 18.317 20 18.335 20C18.353 20 18.3709 20 18.3889 20C18.4069 20 18.4248 20 18.4428 20C18.4608 20 18.4788 20 18.4967 20C18.5147 20 18.5326 20 18.5506 20C18.5686 20 18.5865 20 18.6045 20C18.6224 20 18.6404 20 18.6583 20C18.6763 20 18.6942 20 18.7122 20C18.7301 20 18.748 20 18.766 20C18.7839 20 18.8018 20 18.8198 20C18.8377 20 18.8556 20 18.8736 20C18.8915 20 18.9094 20 18.9273 20C18.9452 20 18.9631 20 18.9811 20C18.999 20 19.0169 20 19.0348 20C19.0527 20 19.0706 20 19.0885 20C19.1064 20 19.1242 20 19.1421 20C19.16 20 19.1779 20 19.1958 20C19.2137 20 19.2315 20 19.2494 20C19.2673 20 19.2851 20 19.303 20C19.3209 20 19.3387 20 19.3566 20C19.3744 20 19.3923 20 19.4101 20C19.4279 20 19.4458 20 19.4636 20C19.4815 20 19.4993 20 19.5171 20C19.5349 20 19.5527 20 19.5706 20C19.5884 20 19.6062 20 19.624 20C19.6418 20 19.6596 20 19.6774 20C19.6952 20 19.713 20 19.7307 20C19.7485 20 19.7663 20 19.7841 20C19.8018 20 19.8196 20 19.8374 20C19.8551 20 19.8729 20 19.8906 20C19.9084 20 19.9261 20 19.9439 20C19.9616 20 19.9793 20 19.9971 20C20.0148 20 20.0325 20 20.0502 20C20.0679 20 20.0856 20 20.1033 20C20.121 20 20.1387 20 20.1564 20C20.1741 20 20.1918 20 20.2095 20C20.2271 20 20.2448 20 20.2625 20C20.2801 20 20.2978 20 20.3154 20C20.3331 20 20.3507 20 20.3683 20C20.386 20 20.4036 20 20.4212 20C20.4388 20 20.4565 20 20.4741 20C20.4917 20 20.5093 20 20.5269 20C20.5444 20 20.562 20 20.5796 20C20.5972 20 20.6147 20 20.6323 20C20.6499 20 20.6674 20 20.685 20C20.7025 20 20.7201 20 20.7376 20C20.7551 20 20.7726 20 20.7902 20C20.8077 20 20.8252 20 20.8427 20C20.8602 20 20.8777 20 20.8951 20C20.9126 20 20.9301 20 20.9476 20C20.965 20 20.9825 20 20.9999 20C21.0174 20 21.0348 20 21.0523 20C21.0697 20 21.0871 20 21.1045 20C21.1219 20 21.1394 20 21.1567 20C21.1741 20 21.1915 20 21.2089 20C21.2263 20 21.2437 20 21.261 20C21.2784 20 21.2957 20 21.3131 20C21.3304 20 21.3478 20 21.3651 20C21.3824 20 21.3997 20 21.417 20C21.4343 20 21.4516 20 21.4689 20C21.4862 20 21.5035 20 21.5207 20C21.538 20 21.5553 20 21.5725 20C21.5898 20 21.607 20 21.6242 20C21.6415 20 21.6587 20 21.6759 20C21.6931 20 21.7103 20 21.7275 20C21.7447 20 21.7618 20 21.779 20C21.7962 20 21.8133 20 21.8305 20C21.8476 20 21.8647 20 21.8819 20C21.899 20 21.9161 20 21.9332 20C21.9503 20 21.9674 20 21.9845 20C22.0016 20 22.0186 20 22.0357 20C22.0528 20 22.0698 20 22.0868 20C22.1039 20 22.1209 20 22.1379 20C22.1549 20 22.1719 20 22.1889 20C22.2059 20 22.2229 20 22.2399 20C22.2569 20 22.2738 20 22.2908 20C22.3077 20 22.3246 20 22.3416 20C22.3585 20 22.3754 20 22.3923 20C22.4092 20 22.4261 20 22.443 20C22.4598 20 22.4767 20 22.4935 20C22.5104 20 22.5272 20 22.5441 20C22.5609 20 22.5777 20 22.5945 20C22.6113 20 22.6281 20 22.6449 20C22.6617 20 22.6784 20 22.6952 20C22.7119 20 22.7287 20 22.7454 20C22.7621 20 22.7788 20 22.7955 20C22.8122 20 22.8289 20 22.8456 20C22.8623 20 22.8789 20 22.8956 20C22.9122 20 22.9289 20 22.9455 20C22.9621 20 22.9787 20 22.9953 20C23.0119 20 23.0285 20 23.0451 20C23.0616 20 23.0782 20 23.0947 20C23.1113 20 23.1278 20 23.1443 20C23.1608 20 23.1773 20 23.1938 20C23.2103 20 23.2268 20 23.2432 20C23.2597 20 23.2761 20 23.2926 20C23.309 20 23.3254 20 23.3418 20C23.3582 20 23.3746 20 23.391 20C23.4073 20 23.4237 20 23.44 20C23.4564 20 23.4727 20 23.489 20C23.5053 20 23.5216 20 23.5379 20C23.5542 20 23.5705 20 23.5867 20C23.603 20 23.6192 20 23.6355 20C23.6517 20 23.6679 20 23.6841 20C23.7003 20 23.7165 20 23.7326 20C23.7488 20 23.7649 20 23.7811 20C23.7972 20 23.8133 20 23.8294 20C23.8455 20 23.8616 20 23.8777 20C23.8938 20 23.9098 20 23.9259 20C23.9419 20 23.9579 20 23.9739 20C23.9899 20 24.0059 20 24.0219 20C24.0379 20 24.0538 20 24.0698 20C24.0857 20 24.1017 20 24.1176 20C24.1335 20 24.1494 20 24.1652 20C24.1811 20 24.197 20 24.2128 20C24.2287 20 24.2445 20 24.2603 20C24.2761 20 24.2919 20 24.3077 20C24.3235 20 24.3392 20 24.355 20C24.3707 20 24.3865 20 24.4022 20C24.4179 20 24.4336 20 24.4493 20C24.4649 20 24.4806 20 24.4962 20C24.5119 20 24.5275 20 24.5431 20C24.5587 20 24.5743 20 24.5899 20C24.6054 20 24.621 20 24.6365 20C24.6521 20 24.6676 20 24.6831 20C24.6986 20 24.7141 20 24.7295 20C24.745 20 24.7605 20 24.7759 20C24.7913 20 24.8067 20 24.8221 20C24.8375 20 24.8529 20 24.8682 20C24.8836 20 24.8989 20 24.9143 20C24.9296 20 24.9449 20 24.9602 20C24.9754 20 24.9907 20 25.0059 20C25.0212 20 25.0364 20 25.0516 20C25.0668 20 25.082 20 25.0972 20C25.1124 20 25.1275 20 25.1426 20C25.1578 20 25.1729 20 25.188 20C25.2031 20 25.2181 20 25.2332 20C25.2482 20 25.2633 20 25.2783 20C25.2933 20 25.3083 20 25.3233 20C25.3383 20 25.3532 20 25.3681 20C25.3831 20 25.398 20 25.4129 20C25.4278 20 25.4427 20 25.4575 20C25.4724 20 25.4872 20 25.502 20C25.5169 20 25.5317 20 25.5464 20C25.5612 20 25.576 20 25.5907 20C25.6054 20 25.6201 20 25.6348 20C25.6495 20 25.6642 20 25.6789 20C25.6935 20 25.7082 20 25.7228 20C25.7374 20 25.752 20 25.7665 20C25.7811 20 25.7957 20 25.8102 20C25.8247 20 25.8392 20 25.8537 20C25.8682 20 25.8827 20 25.8971 20C25.9115 20 25.926 20 25.9404 20C25.9548 20 25.9692 20 25.9835 20C25.9979 20 26.0122 20 26.0265 20C26.0408 20 26.0551 20 26.0694 20C26.0837 20 26.0979 20 26.1122 20C26.1264 20 26.1406 20 26.1548 20C26.169 20 26.1831 20 26.1973 20C26.2114 20 26.2255 20 26.2396 20C26.2537 20 26.2678 20 26.2818 20C26.2959 20 26.3099 20 26.3239 20C26.3379 20 26.3519 20 26.3659 20C26.3798 20 26.3938 20 26.4077 20C26.4216 20 26.4355 20 26.4493 20C26.4632 20 26.4771 20 26.4909 20C26.5047 20 26.5185 20 26.5323 20C26.5461 20 26.5598 20 26.5735 20C26.5873 20 26.601 20 26.6147 20C26.6283 20 26.642 20 26.6556 20C26.6693 20 26.6829 20 26.6965 20C26.7101 20 26.7236 20 26.7372 20C26.7507 20 26.7642 20 26.7777 20C26.7912 20 26.8047 20 26.8181 20C26.8316 20 26.845 20 26.8584 20C26.8718 20 26.8852 20 26.8985 20C26.9119 20 26.9252 20 26.9385 20C26.9518 20 26.9651 20 26.9783 20C26.9916 20 27.0048 20 27.018 20C27.0312 20 27.0444 20 27.0575 20C27.0707 20 27.0838 20 27.0969 20C27.11 20 27.1231 20 27.1361 20C27.1492 20 27.1622 20 27.1752 20C27.1882 20 27.2012 20 27.2142 20C27.2271 20 27.24 20 27.2529 20C27.2658 20 27.2787 20 27.2916 20C27.3044 20 27.3172 20 27.33 20C27.3428 20 27.3556 20 27.3684 20C27.3811 20 27.3938 20 27.4065 20C27.4192 20 27.4319 20 27.4445 20C27.4572 20 27.4698 20 27.4824 20C27.495 20 27.5075 20 27.5201 20C27.5326 20 27.5451 20 27.5576 20C27.5701 20 27.5825 20 27.595 20C27.6074 20 27.6198 20 27.6322 20C27.6446 20 27.6569 20 27.6692 20C27.6816 20 27.6939 20 27.7061 20C27.7184 20 27.7306 20 27.7429 20C27.7551 20 27.7673 20 27.7794 20C27.7916 20 27.8037 20 27.8158 20C27.8279 20 27.84 20 27.8521 20C27.8641 20 27.8762 20 27.8882 20C27.9002 20 27.9121 20 27.9241 20C27.936 20 27.9479 20 27.9598 20C27.9717 20 27.9836 20 27.9954 20C28.0072 20 28.019 20 28.0308 20C28.0426 20 28.0543 20 28.066 20C28.0778 20 28.0894 20 28.1011 20C28.1128 20 28.1244 20 28.136 20C28.1476 20 28.1592 20 28.1707 20C28.1823 20 28.1938 20 28.2053 20C28.2168 20 28.2282 20 28.2397 20C28.2511 20 28.2625 20 28.2739 20C28.2853 20 28.2966 20 28.3079 20C28.3192 20 28.3305 20 28.3418 20C28.353 20 28.3643 20 28.3755 20C28.3867 20 28.3978 20 28.409 20C28.4201 20 28.4312 20 28.4423 20C28.4534 20 28.4644 20 28.4755 20C28.4865 20 28.4975 20 28.5084 20C28.5194 20 28.5303 20 28.5412 20C28.5521 20 28.563 20 28.5738 20C28.5847 20 28.5955 20 28.6063 20C28.6171 20 28.6278 20 28.6385 20C28.6492 20 28.6599 20 28.6706 20C28.6813 20 28.6919 20 28.7025 20C28.7131 20 28.7236 20 28.7342 20C28.7447 20 28.7552 20 28.7657 20C28.7762 20 28.7866 20 28.797 20C28.8074 20 28.8178 20 28.8282 20C28.8385 20 28.8488 20 28.8591 20C28.8694 20 28.8797 20 28.8899 20C28.9001 20 28.9103 20 28.9205 20C28.9307 20 28.9408 20 28.9509 20C28.961 20 28.971 20 28.9811 20C28.9911 20 29.0011 20 29.0111 20C29.0211 20 29.031 20 29.0409 20C29.0508 20 29.0607 20 29.0705 20C29.0804 20 29.0902 20 29.1 20C29.1098 20 29.1195 20 29.1292 20C29.1389 20 29.1486 20 29.1583 20C29.1679 20 29.1775 20 29.1871 20C29.1967 20 29.2062 20 29.2158 20C29.2253 20 29.2348 20 29.2442 20C29.2537 20 29.2631 20 29.2725 20C29.2819 20 29.2912 20 29.3005 20C29.3099 20 29.3191 20 29.3284 20C29.3376 20 29.3469 20 29.3561 20C29.3652 20 29.3744 20 29.3835 20C29.3926 20 29.4017 20 29.4108 20C29.4198 20 29.4288 20 29.4378 20C29.4468 20 29.4558 20 29.4647 20C29.4736 20 29.4825 20 29.4913 20C29.5002 20 29.509 20 29.5178 20C29.5265 20 29.5353 20 29.544 20C29.5527 20 29.5614 20 29.57 20C29.5787 20 29.5873 20 29.5959 20C29.6044 20 29.613 20 29.6215 20C29.63 20 29.6385 20 29.6469 20C29.6553 20 29.6637 20 29.6721 20C29.6805 20 29.6888 20 29.6971 20C29.7054 20 29.7136 20 29.7219 20C29.7301 20 29.7383 20 29.7464 20C29.7546 20 29.7627 20 29.7708 20C29.7789 20 29.7869 20 29.7949 20C29.8029 20 29.8109 20 29.8188 20C29.8268 20 29.8347 20 29.8426 20C29.8504 20 29.8583 20 29.8661 20C29.8739 20 29.8816 20 29.8893 20C29.8971 20 29.9048 20 29.9124 20C29.9201 20 29.9277 20 29.9353 20C29.9428 20 29.9504 20 29.9579 20C29.9654 20 29.9729 20 29.9803 20C29.9877 20 29.9951 20 30.0025 20C30.0098 20 30.0172 20 30.0245 20C30.0317 20 30.039 20 30.0462 20C30.0534 20 30.0606 20 30.0677 20C30.0749 20 30.082 20 30.089 20C30.0961 20 30.1031 20 30.1101 20C30.1171 20 30.1241 20 30.131 20C30.1379 20 30.1448 20 30.1516 20C30.1584 20 30.1652 20 30.172 20C30.1788 20 30.1855 20 30.1922 20C30.1989 20 30.2055 20 30.2121 20C30.2187 20 30.2253 20 30.2318 20C30.2384 20 30.2449 20 30.2513 20C30.2578 20 30.2642 20 30.2706 20C30.277 20 30.2833 20 30.2896 20C30.2959 20 30.3022 20 30.3084 20C30.3147 20 30.3209 20 30.327 20C30.3332 20 30.3393 20 30.3453 20C30.3514 20 30.3574 20 30.3634 20C30.3694 20 30.3754 20 30.3813 20C30.3872 20 30.3931 20 30.3989 20C30.4048 20 30.4106 20 30.4163 20C30.4221 20 30.4278 20 30.4335 20C30.4392 20 30.4448 20 30.4504 20C30.456 20 30.4616 20 30.4671 20C30.4726 20 30.4781 20 30.4835 20C30.489 20 30.4944 20 30.4998 20C30.5051 20 30.5104 20 30.5157 20C30.521 20 30.5262 20 30.5314 20C30.5366 20 30.5418 20 30.5469 20C30.552 20 30.5571 20 30.5622 20C30.5672 20 30.5722 20 30.5772 20C30.5821 20 30.587 20 30.5919 20C30.5968 20 30.6016 20 30.6064 20C30.6112 20 30.616 20 30.6207 20C30.6254 20 30.6301 20 30.6347 20C30.6393 20 30.6439 20 30.6485 20C30.653 20 30.6575 20 30.662 20C30.6664 20 30.6709 20 30.6752 20C30.6796 20 30.684 20 30.6883 20C30.6926 20 30.6968 20 30.701 20C30.7053 20 30.7094 20 30.7136 20C30.7177 20 30.7218 20 30.7258 20C30.7299 20 30.7339 20 30.7378 20C30.7418 20 30.7457 20 30.7496 20C30.7535 20 30.7573 20 30.7611 20C30.7649 20 30.7686 20 30.7724 20C30.7761 20 30.7797 20 30.7834 20C30.787 20 30.7906 20 30.7941 20C30.7976 20 30.8011 20 30.8046 20C30.808 20 30.8114 20 30.8148 20C30.8182 20 30.8215 20 30.8248 20C30.828 20 30.8313 20 30.8345 20C30.8377 20 30.8408 20 30.8439 20C30.847 20 30.8501 20 30.8531 20C30.8561 20 30.8591 20 30.862 20C30.865 20 30.8678 20 30.8707 20C30.8735 20 30.8763 20 30.8791 20C30.8818 20 30.8845 20 30.8872 20C30.8899 20 30.8925 20 30.8951 20C30.8977 20 30.9002 20 30.9027 20C30.9052 20 30.9076 20 30.91 20C30.9124 20 30.9148 20 30.9171 20C30.9194 20 30.9217 20 30.9239 20C30.9261 20 30.9283 20 30.9304 20C30.9326 20 30.9346 20 30.9367 20C30.9387 20 30.9407 20 30.9427 20C30.9446 20 30.9465 20 30.9484 20C30.9503 20 30.9521 20 30.9538 20C30.9556 20 30.9573 20 30.959 20C30.9607 20 30.9623 20 30.9639 20C30.9655 20 30.9671 20 30.9686 20C30.9701 20 30.9715 20 30.9729 20C30.9743 20 30.9757 20 30.977 20C30.9783 20 30.9796 20 30.9808 20C30.982 20 30.9832 20 30.9843 20C30.9855 20 30.9865 20 30.9876 20C30.9886 20 30.9896 20 30.9906 20C30.9915 20 30.9924 20 30.9932 20C30.9941 20 30.9949 20 30.9957 20C30.9964 20 30.9971 20 30.9978 20C30.9984 20 30.9991 20 30.9996 20C31.0002 20 31.0007 20 31.0012 20C31.0017 20 31.0021 20 31.0025 20C31.0029 20 31.0032 20 31.0035 20C31.0038 20 31.004 20 31.0042 20C31.0044 20 31.0045 20 31.0046 20C31.0047 20 31.0048 20 31.0048 10C31.0048 0 31.0047 0 31.0046 0C31.0045 0 31.0044 0 31.0042 0C31.004 0 31.0038 0 31.0035 0C31.0032 0 31.0029 0 31.0025 0C31.0021 0 31.0017 0 31.0012 0C31.0007 0 31.0002 0 30.9996 0C30.9991 0 30.9984 0 30.9978 0C30.9971 0 30.9964 0 30.9957 0C30.9949 0 30.9941 0 30.9932 0C30.9924 0 30.9915 0 30.9906 0C30.9896 0 30.9886 0 30.9876 0C30.9865 0 30.9855 0 30.9843 0C30.9832 0 30.982 0 30.9808 0C30.9796 0 30.9783 0 30.977 0C30.9757 0 30.9743 0 30.9729 0C30.9715 0 30.9701 0 30.9686 0C30.9671 0 30.9655 0 30.9639 0C30.9623 0 30.9607 0 30.959 0C30.9573 0 30.9556 0 30.9538 0C30.9521 0 30.9503 0 30.9484 0C30.9465 0 30.9446 0 30.9427 0C30.9407 0 30.9387 0 30.9367 0C30.9346 0 30.9326 0 30.9304 0C30.9283 0 30.9261 0 30.9239 0C30.9217 0 30.9194 0 30.9171 0C30.9148 0 30.9124 0 30.91 0C30.9076 0 30.9052 0 30.9027 0C30.9002 0 30.8977 0 30.8951 0C30.8925 0 30.8899 0 30.8872 0C30.8845 0 30.8818 0 30.8791 0C30.8763 0 30.8735 0 30.8707 0C30.8678 0 30.865 0 30.862 0C30.8591 0 30.8561 0 30.8531 0C30.8501 0 30.847 0 30.8439 0C30.8408 0 30.8377 0 30.8345 0C30.8313 0 30.828 0 30.8248 0C30.8215 0 30.8182 0 30.8148 0C30.8114 0 30.808 0 30.8046 0C30.8011 0 30.7976 0 30.7941 0C30.7906 0 30.787 0 30.7834 0C30.7797 0 30.7761 0 30.7724 0C30.7686 0 30.7649 0 30.7611 0C30.7573 0 30.7535 0 30.7496 0C30.7457 0 30.7418 0 30.7378 0C30.7339 0 30.7299 0 30.7258 0C30.7218 0 30.7177 0 30.7136 0C30.7094 0 30.7053 0 30.701 0C30.6968 0 30.6926 0 30.6883 0C30.684 0 30.6796 0 30.6752 0C30.6709 0 30.6664 0 30.662 0C30.6575 0 30.653 0 30.6485 0C30.6439 0 30.6393 0 30.6347 0C30.6301 0 30.6254 0 30.6207 0C30.616 0 30.6112 0 30.6064 0C30.6016 0 30.5968 0 30.5919 0C30.587 0 30.5821 0 30.5772 0C30.5722 0 30.5672 0 30.5622 0C30.5571 0 30.552 0 30.5469 0C30.5418 0 30.5366 0 30.5314 0C30.5262 0 30.521 0 30.5157 0C30.5104 0 30.5051 0 30.4998 0C30.4944 0 30.489 0 30.4835 0C30.4781 0 30.4726 0 30.4671 0C30.4616 0 30.456 0 30.4504 0C30.4448 0 30.4392 0 30.4335 0C30.4278 0 30.4221 0 30.4163 0C30.4106 0 30.4048 0 30.3989 0C30.3931 0 30.3872 0 30.3813 0C30.3754 0 30.3694 0 30.3634 0C30.3574 0 30.3514 0 30.3453 0C30.3393 0 30.3332 0 30.327 0C30.3209 0 30.3147 0 30.3084 0C30.3022 0 30.2959 0 30.2896 0C30.2833 0 30.277 0 30.2706 0C30.2642 0 30.2578 0 30.2513 0C30.2449 0 30.2384 0 30.2318 0C30.2253 0 30.2187 0 30.2121 0C30.2055 0 30.1989 0 30.1922 0C30.1855 0 30.1788 0 30.172 0C30.1652 0 30.1584 0 30.1516 0C30.1448 0 30.1379 0 30.131 0C30.1241 0 30.1171 0 30.1101 0C30.1031 0 30.0961 0 30.089 0C30.082 0 30.0749 0 30.0677 0C30.0606 0 30.0534 0 30.0462 0C30.039 0 30.0317 0 30.0245 0C30.0172 0 30.0098 0 30.0025 0C29.9951 0 29.9877 0 29.9803 0C29.9729 0 29.9654 0 29.9579 0C29.9504 0 29.9428 0 29.9353 0C29.9277 0 29.9201 0 29.9124 0C29.9048 0 29.8971 0 29.8893 0C29.8816 0 29.8739 0 29.8661 0C29.8583 0 29.8504 0 29.8426 0C29.8347 0 29.8268 0 29.8188 0C29.8109 0 29.8029 0 29.7949 0C29.7869 0 29.7789 0 29.7708 0C29.7627 0 29.7546 0 29.7464 0C29.7383 0 29.7301 0 29.7219 0C29.7136 0 29.7054 0 29.6971 0C29.6888 0 29.6805 0 29.6721 0C29.6637 0 29.6553 0 29.6469 0C29.6385 0 29.63 0 29.6215 0C29.613 0 29.6044 0 29.5959 0C29.5873 0 29.5787 0 29.57 0C29.5614 0 29.5527 0 29.544 0C29.5353 0 29.5265 0 29.5178 0C29.509 0 29.5002 0 29.4913 0C29.4825 0 29.4736 0 29.4647 0C29.4558 0 29.4468 0 29.4378 0C29.4288 0 29.4198 0 29.4108 0C29.4017 0 29.3926 0 29.3835 0C29.3744 0 29.3652 0 29.3561 0C29.3469 0 29.3376 0 29.3284 0C29.3191 0 29.3099 0 29.3005 0C29.2912 0 29.2819 0 29.2725 0C29.2631 0 29.2537 0 29.2442 0C29.2348 0 29.2253 0 29.2158 0C29.2062 0 29.1967 0 29.1871 0C29.1775 0 29.1679 0 29.1583 0C29.1486 0 29.1389 0 29.1292 0C29.1195 0 29.1098 0 29.1 0C29.0902 0 29.0804 0 29.0705 0C29.0607 0 29.0508 0 29.0409 0C29.031 0 29.0211 0 29.0111 0C29.0011 0 28.9911 0 28.9811 0C28.971 0 28.961 0 28.9509 0C28.9408 0 28.9307 0 28.9205 0C28.9103 0 28.9001 0 28.8899 0C28.8797 0 28.8694 0 28.8591 0C28.8488 0 28.8385 0 28.8282 0C28.8178 0 28.8074 0 28.797 0C28.7866 0 28.7762 0 28.7657 0C28.7552 0 28.7447 0 28.7342 0C28.7236 0 28.7131 0 28.7025 0C28.6919 0 28.6813 0 28.6706 0C28.6599 0 28.6492 0 28.6385 0C28.6278 0 28.6171 0 28.6063 0C28.5955 0 28.5847 0 28.5738 0C28.563 0 28.5521 0 28.5412 0C28.5303 0 28.5194 0 28.5084 0C28.4975 0 28.4865 0 28.4755 0C28.4644 0 28.4534 0 28.4423 0C28.4312 0 28.4201 0 28.409 0C28.3978 0 28.3867 0 28.3755 0C28.3643 0 28.353 0 28.3418 0C28.3305 0 28.3192 0 28.3079 0C28.2966 0 28.2853 0 28.2739 0C28.2625 0 28.2511 0 28.2397 0C28.2282 0 28.2168 0 28.2053 0C28.1938 0 28.1823 0 28.1707 0C28.1592 0 28.1476 0 28.136 0C28.1244 0 28.1128 0 28.1011 0C28.0894 0 28.0778 0 28.066 0C28.0543 0 28.0426 0 28.0308 0C28.019 0 28.0072 0 27.9954 0C27.9836 0 27.9717 0 27.9598 0C27.9479 0 27.936 0 27.9241 0C27.9121 0 27.9002 0 27.8882 0C27.8762 0 27.8641 0 27.8521 0C27.84 0 27.8279 0 27.8158 0C27.8037 0 27.7916 0 27.7794 0C27.7673 0 27.7551 0 27.7429 0C27.7306 0 27.7184 0 27.7061 0C27.6939 0 27.6816 0 27.6692 0C27.6569 0 27.6446 0 27.6322 0C27.6198 0 27.6074 0 27.595 0C27.5825 0 27.5701 0 27.5576 0C27.5451 0 27.5326 0 27.5201 0C27.5075 0 27.495 0 27.4824 0C27.4698 0 27.4572 0 27.4445 0C27.4319 0 27.4192 0 27.4065 0C27.3938 0 27.3811 0 27.3684 0C27.3556 0 27.3428 0 27.33 0C27.3172 0 27.3044 0 27.2916 0C27.2787 0 27.2658 0 27.2529 0C27.24 0 27.2271 0 27.2142 0C27.2012 0 27.1882 0 27.1752 0C27.1622 0 27.1492 0 27.1361 0C27.1231 0 27.11 0 27.0969 0C27.0838 0 27.0707 0 27.0575 0C27.0444 0 27.0312 0 27.018 0C27.0048 0 26.9916 0 26.9783 0C26.9651 0 26.9518 0 26.9385 0C26.9252 0 26.9119 0 26.8985 0C26.8852 0 26.8718 0 26.8584 0C26.845 0 26.8316 0 26.8181 0C26.8047 0 26.7912 0 26.7777 0C26.7642 0 26.7507 0 26.7372 0C26.7236 0 26.7101 0 26.6965 0C26.6829 0 26.6693 0 26.6556 0C26.642 0 26.6283 0 26.6147 0C26.601 0 26.5873 0 26.5735 0C26.5598 0 26.5461 0 26.5323 0C26.5185 0 26.5047 0 26.4909 0C26.4771 0 26.4632 0 26.4493 0C26.4355 0 26.4216 0 26.4077 0C26.3938 0 26.3798 0 26.3659 0C26.3519 0 26.3379 0 26.3239 0C26.3099 0 26.2959 0 26.2818 0C26.2678 0 26.2537 0 26.2396 0C26.2255 0 26.2114 0 26.1973 0C26.1831 0 26.169 0 26.1548 0C26.1406 0 26.1264 0 26.1122 0C26.0979 0 26.0837 0 26.0694 0C26.0551 0 26.0408 0 26.0265 0C26.0122 0 25.9979 0 25.9835 0C25.9692 0 25.9548 0 25.9404 0C25.926 0 25.9115 0 25.8971 0C25.8827 0 25.8682 0 25.8537 0C25.8392 0 25.8247 0 25.8102 0C25.7957 0 25.7811 0 25.7665 0C25.752 0 25.7374 0 25.7228 0C25.7082 0 25.6935 0 25.6789 0C25.6642 0 25.6495 0 25.6348 0C25.6201 0 25.6054 0 25.5907 0C25.576 0 25.5612 0 25.5464 0C25.5317 0 25.5169 0 25.502 0C25.4872 0 25.4724 0 25.4575 0C25.4427 0 25.4278 0 25.4129 0C25.398 0 25.3831 0 25.3681 0C25.3532 0 25.3383 0 25.3233 0C25.3083 0 25.2933 0 25.2783 0C25.2633 0 25.2482 0 25.2332 0C25.2181 0 25.2031 0 25.188 0C25.1729 0 25.1578 0 25.1426 0C25.1275 0 25.1124 0 25.0972 0C25.082 0 25.0668 0 25.0516 0C25.0364 0 25.0212 0 25.0059 0C24.9907 0 24.9754 0 24.9602 0C24.9449 0 24.9296 0 24.9143 0C24.8989 0 24.8836 0 24.8682 0C24.8529 0 24.8375 0 24.8221 0C24.8067 0 24.7913 0 24.7759 0C24.7605 0 24.745 0 24.7295 0C24.7141 0 24.6986 0 24.6831 0C24.6676 0 24.6521 0 24.6365 0C24.621 0 24.6054 0 24.5899 0C24.5743 0 24.5587 0 24.5431 0C24.5275 0 24.5119 0 24.4962 0C24.4806 0 24.4649 0 24.4493 0C24.4336 0 24.4179 0 24.4022 0C24.3865 0 24.3707 0 24.355 0C24.3392 0 24.3235 0 24.3077 0C24.2919 0 24.2761 0 24.2603 0C24.2445 0 24.2287 0 24.2128 0C24.197 0 24.1811 0 24.1652 0C24.1494 0 24.1335 0 24.1176 0C24.1017 0 24.0857 0 24.0698 0C24.0538 0 24.0379 0 24.0219 0C24.0059 0 23.9899 0 23.9739 0C23.9579 0 23.9419 0 23.9259 0C23.9098 0 23.8938 0 23.8777 0C23.8616 0 23.8455 0 23.8294 0C23.8133 0 23.7972 0 23.7811 0C23.7649 0 23.7488 0 23.7326 0C23.7165 0 23.7003 0 23.6841 0C23.6679 0 23.6517 0 23.6355 0C23.6192 0 23.603 0 23.5867 0C23.5705 0 23.5542 0 23.5379 0C23.5216 0 23.5053 0 23.489 0C23.4727 0 23.4564 0 23.44 0C23.4237 0 23.4073 0 23.391 0C23.3746 0 23.3582 0 23.3418 0C23.3254 0 23.309 0 23.2926 0C23.2761 0 23.2597 0 23.2432 0C23.2268 0 23.2103 0 23.1938 0C23.1773 0 23.1608 0 23.1443 0C23.1278 0 23.1113 0 23.0947 0C23.0782 0 23.0616 0 23.0451 0C23.0285 0 23.0119 0 22.9953 0C22.9787 0 22.9621 0 22.9455 0C22.9289 0 22.9122 0 22.8956 0C22.8789 0 22.8623 0 22.8456 0C22.8289 0 22.8122 0 22.7955 0C22.7788 0 22.7621 0 22.7454 0C22.7287 0 22.7119 0 22.6952 0C22.6784 0 22.6617 0 22.6449 0C22.6281 0 22.6113 0 22.5945 0C22.5777 0 22.5609 0 22.5441 0C22.5272 0 22.5104 0 22.4935 0C22.4767 0 22.4598 0 22.443 0C22.4261 0 22.4092 0 22.3923 0C22.3754 0 22.3585 0 22.3416 0C22.3246 0 22.3077 0 22.2908 0C22.2738 0 22.2569 0 22.2399 0C22.2229 0 22.2059 0 22.1889 0C22.1719 0 22.1549 0 22.1379 0C22.1209 0 22.1039 0 22.0868 0C22.0698 0 22.0528 0 22.0357 0C22.0186 0 22.0016 0 21.9845 0C21.9674 0 21.9503 0 21.9332 0C21.9161 0 21.899 0 21.8819 0C21.8647 0 21.8476 0 21.8305 0C21.8133 0 21.7962 0 21.779 0C21.7618 0 21.7447 0 21.7275 0C21.7103 0 21.6931 0 21.6759 0C21.6587 0 21.6415 0 21.6242 0C21.607 0 21.5898 0 21.5725 0C21.5553 0 21.538 0 21.5207 0C21.5035 0 21.4862 0 21.4689 0C21.4516 0 21.4343 0 21.417 0C21.3997 0 21.3824 0 21.3651 0C21.3478 0 21.3304 0 21.3131 0C21.2957 0 21.2784 0 21.261 0C21.2437 0 21.2263 0 21.2089 0C21.1915 0 21.1741 0 21.1567 0C21.1394 0 21.1219 0 21.1045 0C21.0871 0 21.0697 0 21.0523 0C21.0348 0 21.0174 0 20.9999 0C20.9825 0 20.965 0 20.9476 0C20.9301 0 20.9126 0 20.8951 0C20.8777 0 20.8602 0 20.8427 0C20.8252 0 20.8077 0 20.7902 0C20.7726 0 20.7551 0 20.7376 0C20.7201 0 20.7025 0 20.685 0C20.6674 0 20.6499 0 20.6323 0C20.6147 0 20.5972 0 20.5796 0C20.562 0 20.5444 0 20.5269 0C20.5093 0 20.4917 0 20.4741 0C20.4565 0 20.4388 0 20.4212 0C20.4036 0 20.386 0 20.3683 0C20.3507 0 20.3331 0 20.3154 0C20.2978 0 20.2801 0 20.2625 0C20.2448 0 20.2271 0 20.2095 0C20.1918 0 20.1741 0 20.1564 0C20.1387 0 20.121 0 20.1033 0C20.0856 0 20.0679 0 20.0502 0C20.0325 0 20.0148 0 19.9971 0C19.9793 0 19.9616 0 19.9439 0C19.9261 0 19.9084 0 19.8906 0C19.8729 0 19.8551 0 19.8374 0C19.8196 0 19.8018 0 19.7841 0C19.7663 0 19.7485 0 19.7307 0C19.713 0 19.6952 0 19.6774 0C19.6596 0 19.6418 0 19.624 0C19.6062 0 19.5884 0 19.5706 0C19.5527 0 19.5349 0 19.5171 0C19.4993 0 19.4815 0 19.4636 0C19.4458 0 19.4279 0 19.4101 0C19.3923 0 19.3744 0 19.3566 0C19.3387 0 19.3209 0 19.303 0C19.2851 0 19.2673 0 19.2494 0C19.2315 0 19.2137 0 19.1958 0C19.1779 0 19.16 0 19.1421 0C19.1242 0 19.1064 0 19.0885 0C19.0706 0 19.0527 0 19.0348 0C19.0169 0 18.999 0 18.9811 0C18.9631 0 18.9452 0 18.9273 0C18.9094 0 18.8915 0 18.8736 0C18.8556 0 18.8377 0 18.8198 0C18.8018 0 18.7839 0 18.766 0C18.748 0 18.7301 0 18.7122 0C18.6942 0 18.6763 0 18.6583 0C18.6404 0 18.6224 0 18.6045 0C18.5865 0 18.5686 0 18.5506 0C18.5326 0 18.5147 0 18.4967 0C18.4788 0 18.4608 0 18.4428 0C18.4248 0 18.4069 0 18.3889 0C18.3709 0 18.353 0 18.335 0C18.317 0 18.299 0 18.281 0C18.2631 0 18.2451 0 18.2271 0C18.2091 0 18.1911 0 18.1731 0C18.1551 0 18.1371 0 18.1191 0C18.1012 0 18.0832 0 18.0652 0C18.0472 0 18.0292 0 18.0112 0C17.9932 0 17.9752 0 17.9572 0C17.9392 0 17.9212 0 17.9032 0C17.8852 0 17.8672 0 17.8491 0C17.8311 0 17.8131 0 17.7951 0C17.7771 0 17.7591 0 17.7411 0C17.7231 0 17.7051 0 17.6871 0C17.6691 0 17.651 0 17.633 0C17.615 0 17.597 0 17.579 0C17.561 0 17.543 0 17.525 0C17.5069 0 17.4889 0 17.4709 0C17.4529 0 17.4349 0 17.4169 0C17.3989 0 17.3809 0 17.3628 0C17.3448 0 17.3268 0 17.3088 0C17.2908 0 17.2728 0 17.2548 0C17.2368 0 17.2187 0 17.2007 0C17.1827 0 17.1647 0 17.1467 0C17.1287 0 17.1107 0 17.0927 0C17.0747 0 17.0567 0 17.0386 0C17.0206 0 17.0026 0 16.9846 0C16.9666 0 16.9486 0 16.9306 0C16.9126 0 16.8946 0 16.8766 0C16.8586 0 16.8406 0 16.8226 0C16.8046 0 16.7866 0 16.7686 0C16.7506 0 16.7326 0 16.7147 0C16.6967 0 16.6787 0 16.6607 0C16.6427 0 16.6247 0 16.6067 0C16.5888 0 16.5708 0 16.5528 0C16.5348 0 16.5168 0 16.4989 0C16.4809 0 16.4629 0 16.4449 0C16.427 0 16.409 0 16.391 0C16.3731 0 16.3551 0 16.3371 0C16.3192 0 16.3012 0 16.2833 0C16.2653 0 16.2474 0 16.2294 0C16.2115 0 16.1935 0 16.1756 0C16.1576 0 16.1397 0 16.1217 0C16.1038 0 16.0859 0 16.0679 0C16.05 0 16.0321 0 16.0141 0C15.9962 0 15.9783 0 15.9604 0C15.9425 0 15.9245 0 15.9066 0C15.8887 0 15.8708 0 15.8529 0C15.835 0 15.8171 0 15.7992 0C15.7813 0 15.7634 0 15.7455 0C15.7276 0 15.7098 0 15.6919 0C15.674 0 15.6561 0 15.6382 0C15.6204 0 15.6025 0 15.5846 0C15.5668 0 15.5489 0 15.5311 0C15.5132 0 15.4954 0 15.4775 0C15.4597 0 15.4418 0 15.424 0C15.4062 0 15.3883 0 15.3705 0C15.3527 0 15.3348 0 15.317 0C15.2992 0 15.2814 0 15.2636 0C15.2458 0 15.228 0 15.2102 0C15.1924 0 15.1746 0 15.1568 0C15.139 0 15.1212 0 15.1035 0C15.0857 0 15.0679 0 15.0502 0C15.0324 0 15.0146 0 14.9969 0C14.9791 0 14.9614 0 14.9436 0C14.9259 0 14.9082 0 14.8904 0C14.8727 0 14.855 0 14.8373 0C14.8196 0 14.8018 0 14.7841 0C14.7664 0 14.7487 0 14.731 0C14.7134 0 14.6957 0 14.678 0C14.6603 0 14.6426 0 14.625 0C14.6073 0 14.5896 0 14.572 0C14.5543 0 14.5367 0 14.5191 0C14.5014 0 14.4838 0 14.4662 0C14.4485 0 14.4309 0 14.4133 0C14.3957 0 14.3781 0 14.3605 0C14.3429 0 14.3253 0 14.3077 0C14.2901 0 14.2726 0 14.255 0C14.2374 0 14.2199 0 14.2023 0C14.1848 0 14.1672 0 14.1497 0C14.1322 0 14.1146 0 14.0971 0C14.0796 0 14.0621 0 14.0446 0C14.0271 0 14.0096 0 13.9921 0C13.9746 0 13.9571 0 13.9396 0C13.9222 0 13.9047 0 13.8873 0C13.8698 0 13.8524 0 13.8349 0C13.8175 0 13.8001 0 13.7826 0C13.7652 0 13.7478 0 13.7304 0C13.713 0 13.6956 0 13.6782 0C13.6608 0 13.6434 0 13.6261 0C13.6087 0 13.5914 0 13.574 0C13.5567 0 13.5393 0 13.522 0C13.5047 0 13.4873 0 13.47 0C13.4527 0 13.4354 0 13.4181 0C13.4008 0 13.3835 0 13.3663 0C13.349 0 13.3317 0 13.3145 0C13.2972 0 13.28 0 13.2627 0C13.2455 0 13.2283 0 13.2111 0C13.1938 0 13.1766 0 13.1594 0C13.1423 0 13.1251 0 13.1079 0C13.0907 0 13.0736 0 13.0564 0C13.0393 0 13.0221 0 13.005 0C12.9878 0 12.9707 0 12.9536 0C12.9365 0 12.9194 0 12.9023 0C12.8852 0 12.8681 0 12.8511 0C12.834 0 12.817 0 12.7999 0C12.7829 0 12.7658 0 12.7488 0C12.7318 0 12.7148 0 12.6978 0C12.6808 0 12.6638 0 12.6468 0C12.6298 0 12.6129 0 12.5959 0C12.5789 0 12.562 0 12.5451 0C12.5281 0 12.5112 0 12.4943 0C12.4774 0 12.4605 0 12.4436 0C12.4267 0 12.4099 0 12.393 0C12.3762 0 12.3593 0 12.3425 0C12.3256 0 12.3088 0 12.292 0C12.2752 0 12.2584 0 12.2416 0C12.2248 0 12.208 0 12.1913 0C12.1745 0 12.1578 0 12.141 0C12.1243 0 12.1076 0 12.0909 0C12.0742 0 12.0575 0 12.0408 0C12.0241 0 12.0074 0 11.9908 0C11.9741 0 11.9575 0 11.9408 0C11.9242 0 11.9076 0 11.891 0C11.8744 0 11.8578 0 11.8412 0C11.8246 0 11.8081 0 11.7915 0C11.775 0 11.7584 0 11.7419 0C11.7254 0 11.7089 0 11.6924 0C11.6759 0 11.6594 0 11.6429 0C11.6264 0 11.61 0 11.5935 0C11.5771 0 11.5607 0 11.5443 0C11.5279 0 11.5115 0 11.4951 0C11.4787 0 11.4623 0 11.446 0C11.4296 0 11.4133 0 11.397 0C11.3806 0 11.3643 0 11.348 0C11.3317 0 11.3154 0 11.2992 0C11.2829 0 11.2667 0 11.2504 0C11.2342 0 11.218 0 11.2018 0C11.1856 0 11.1694 0 11.1532 0C11.137 0 11.1209 0 11.1047 0C11.0886 0 11.0724 0 11.0563 0C11.0402 0 11.0241 0 11.008 0C10.9919 0 10.9759 0 10.9598 0C10.9438 0 10.9277 0 10.9117 0C10.8957 0 10.8797 0 10.8637 0C10.8477 0 10.8318 0 10.8158 0C10.7998 0 10.7839 0 10.768 0C10.7521 0 10.7361 0 10.7203 0C10.7044 0 10.6885 0 10.6726 0C10.6568 0 10.6409 0 10.6251 0C10.6093 0 10.5935 0 10.5777 0C10.5619 0 10.5461 0 10.5304 0C10.5146 0 10.4989 0 10.4832 0C10.4674 0 10.4517 0 10.436 0V10ZM31.0048 10L21.1992 11.9626L34.9803 80.8164L44.7858 78.8539L54.5913 76.8913L40.8103 8.03743L31.0048 10ZM44.7858 78.8539L34.9774 80.802C35.9049 85.4714 38.4451 89.6659 42.1535 92.6511L48.4242 84.8615L54.6948 77.0718C54.6428 77.03 54.6072 76.9711 54.5942 76.9057L44.7858 78.8539ZM48.4242 84.8615L42.1535 92.6511C45.8618 95.6363 50.502 97.2222 55.2618 97.1309L55.0702 87.1328L54.8786 77.1346C54.8119 77.1359 54.7468 77.1137 54.6948 77.0718L48.4242 84.8615ZM55.0702 87.1328V97.1328H105.052V87.1328V77.1328H55.0702V87.1328ZM105.052 87.1328L104.861 97.1309C109.62 97.2222 114.261 95.6364 117.969 92.6511L111.698 84.8615L105.428 77.0718C105.376 77.1137 105.311 77.1359 105.244 77.1346L105.052 87.1328ZM111.698 84.8615L117.969 92.6511C121.677 89.6659 124.218 85.4714 125.145 80.802L115.337 78.8539L105.528 76.9057C105.515 76.9712 105.48 77.03 105.428 77.0718L111.698 84.8615ZM115.337 78.8539L125.16 80.7271L133.387 37.5842L123.564 35.7109L113.741 33.8377L105.514 76.9806L115.337 78.8539ZM123.564 35.7109C123.564 25.7109 123.564 25.7109 123.563 25.7109C123.563 25.7109 123.562 25.7109 123.562 25.7109C123.561 25.7109 123.56 25.7109 123.559 25.7109C123.557 25.7109 123.556 25.7109 123.554 25.7109C123.553 25.7109 123.551 25.7109 123.549 25.7109C123.547 25.7109 123.545 25.7109 123.542 25.7109C123.54 25.7109 123.537 25.7109 123.534 25.7109C123.532 25.7109 123.529 25.7109 123.525 25.7109C123.522 25.7109 123.519 25.7109 123.515 25.7109C123.511 25.7109 123.508 25.7109 123.504 25.7109C123.5 25.7109 123.495 25.7109 123.491 25.7109C123.487 25.7109 123.482 25.7109 123.477 25.7109C123.472 25.7109 123.467 25.7109 123.462 25.7109C123.457 25.7109 123.452 25.7109 123.446 25.7109C123.44 25.7109 123.435 25.7109 123.429 25.7109C123.423 25.7109 123.417 25.7109 123.41 25.7109C123.404 25.7109 123.397 25.7109 123.391 25.7109C123.384 25.7109 123.377 25.7109 123.37 25.7109C123.363 25.7109 123.355 25.7109 123.348 25.7109C123.34 25.7109 123.332 25.7109 123.325 25.7109C123.317 25.7109 123.308 25.7109 123.3 25.7109C123.292 25.7109 123.283 25.7109 123.275 25.7109C123.266 25.7109 123.257 25.7109 123.248 25.7109C123.239 25.7109 123.23 25.7109 123.22 25.7109C123.211 25.7109 123.201 25.7109 123.191 25.7109C123.182 25.7109 123.172 25.7109 123.161 25.7109C123.151 25.7109 123.141 25.7109 123.13 25.7109C123.12 25.7109 123.109 25.7109 123.098 25.7109C123.087 25.7109 123.076 25.7109 123.064 25.7109C123.053 25.7109 123.042 25.7109 123.03 25.7109C123.018 25.7109 123.006 25.7109 122.994 25.7109C122.982 25.7109 122.97 25.7109 122.957 25.7109C122.945 25.7109 122.932 25.7109 122.919 25.7109C122.907 25.7109 122.894 25.7109 122.88 25.7109C122.867 25.7109 122.854 25.7109 122.84 25.7109C122.827 25.7109 122.813 25.7109 122.799 25.7109C122.785 25.7109 122.771 25.7109 122.757 25.7109C122.742 25.7109 122.728 25.7109 122.713 25.7109C122.699 25.7109 122.684 25.7109 122.669 25.7109C122.654 25.7109 122.638 25.7109 122.623 25.7109C122.608 25.7109 122.592 25.7109 122.576 25.7109C122.561 25.7109 122.545 25.7109 122.528 25.7109C122.512 25.7109 122.496 25.7109 122.48 25.7109C122.463 25.7109 122.446 25.7109 122.43 25.7109C122.413 25.7109 122.396 25.7109 122.379 25.7109C122.361 25.7109 122.344 25.7109 122.326 25.7109C122.309 25.7109 122.291 25.7109 122.273 25.7109C122.255 25.7109 122.237 25.7109 122.219 25.7109C122.201 25.7109 122.182 25.7109 122.164 25.7109C122.145 25.7109 122.126 25.7109 122.107 25.7109C122.088 25.7109 122.069 25.7109 122.05 25.7109C122.03 25.7109 122.011 25.7109 121.991 25.7109C121.972 25.7109 121.952 25.7109 121.932 25.7109C121.912 25.7109 121.891 25.7109 121.871 25.7109C121.851 25.7109 121.83 25.7109 121.809 25.7109C121.789 25.7109 121.768 25.7109 121.747 25.7109C121.726 25.7109 121.704 25.7109 121.683 25.7109C121.662 25.7109 121.64 25.7109 121.618 25.7109C121.596 25.7109 121.575 25.7109 121.552 25.7109C121.53 25.7109 121.508 25.7109 121.486 25.7109C121.463 25.7109 121.441 25.7109 121.418 25.7109C121.395 25.7109 121.372 25.7109 121.349 25.7109C121.326 25.7109 121.302 25.7109 121.279 25.7109C121.256 25.7109 121.232 25.7109 121.208 25.7109C121.184 25.7109 121.16 25.7109 121.136 25.7109C121.112 25.7109 121.088 25.7109 121.063 25.7109C121.039 25.7109 121.014 25.7109 120.989 25.7109C120.964 25.7109 120.94 25.7109 120.914 25.7109C120.889 25.7109 120.864 25.7109 120.838 25.7109C120.813 25.7109 120.787 25.7109 120.761 25.7109C120.736 25.7109 120.71 25.7109 120.684 25.7109C120.657 25.7109 120.631 25.7109 120.605 25.7109C120.578 25.7109 120.552 25.7109 120.525 25.7109C120.498 25.7109 120.471 25.7109 120.444 25.7109C120.417 25.7109 120.389 25.7109 120.362 25.7109C120.335 25.7109 120.307 25.7109 120.279 25.7109C120.251 25.7109 120.223 25.7109 120.195 25.7109C120.167 25.7109 120.139 25.7109 120.111 25.7109C120.082 25.7109 120.054 25.7109 120.025 25.7109C119.996 25.7109 119.967 25.7109 119.938 25.7109C119.909 25.7109 119.88 25.7109 119.85 25.7109C119.821 25.7109 119.791 25.7109 119.762 25.7109C119.732 25.7109 119.702 25.7109 119.672 25.7109C119.642 25.7109 119.612 25.7109 119.582 25.7109C119.551 25.7109 119.521 25.7109 119.49 25.7109C119.46 25.7109 119.429 25.7109 119.398 25.7109C119.367 25.7109 119.336 25.7109 119.304 25.7109C119.273 25.7109 119.242 25.7109 119.21 25.7109C119.178 25.7109 119.147 25.7109 119.115 25.7109C119.083 25.7109 119.051 25.7109 119.019 25.7109C118.986 25.7109 118.954 25.7109 118.922 25.7109C118.889 25.7109 118.856 25.7109 118.824 25.7109C118.791 25.7109 118.758 25.7109 118.725 25.7109C118.691 25.7109 118.658 25.7109 118.625 25.7109C118.591 25.7109 118.558 25.7109 118.524 25.7109C118.49 25.7109 118.456 25.7109 118.422 25.7109C118.388 25.7109 118.354 25.7109 118.32 25.7109C118.285 25.7109 118.251 25.7109 118.216 25.7109C118.181 25.7109 118.147 25.7109 118.112 25.7109C118.077 25.7109 118.042 25.7109 118.006 25.7109C117.971 25.7109 117.936 25.7109 117.9 25.7109C117.865 25.7109 117.829 25.7109 117.793 25.7109C117.757 25.7109 117.721 25.7109 117.685 25.7109C117.649 25.7109 117.613 25.7109 117.576 25.7109C117.54 25.7109 117.503 25.7109 117.466 25.7109C117.43 25.7109 117.393 25.7109 117.356 25.7109C117.319 25.7109 117.282 25.7109 117.244 25.7109C117.207 25.7109 117.17 25.7109 117.132 25.7109C117.094 25.7109 117.057 25.7109 117.019 25.7109C116.981 25.7109 116.943 25.7109 116.905 25.7109C116.866 25.7109 116.828 25.7109 116.79 25.7109C116.751 25.7109 116.712 25.7109 116.674 25.7109C116.635 25.7109 116.596 25.7109 116.557 25.7109C116.518 25.7109 116.479 25.7109 116.439 25.7109C116.4 25.7109 116.361 25.7109 116.321 25.7109C116.281 25.7109 116.242 25.7109 116.202 25.7109C116.162 25.7109 116.122 25.7109 116.082 25.7109C116.042 25.7109 116.001 25.7109 115.961 25.7109C115.92 25.7109 115.88 25.7109 115.839 25.7109C115.798 25.7109 115.757 25.7109 115.716 25.7109C115.675 25.7109 115.634 25.7109 115.593 25.7109C115.552 25.7109 115.51 25.7109 115.469 25.7109C115.427 25.7109 115.385 25.7109 115.344 25.7109C115.302 25.7109 115.26 25.7109 115.218 25.7109C115.176 25.7109 115.133 25.7109 115.091 25.7109C115.049 25.7109 115.006 25.7109 114.963 25.7109C114.921 25.7109 114.878 25.7109 114.835 25.7109C114.792 25.7109 114.749 25.7109 114.706 25.7109C114.663 25.7109 114.619 25.7109 114.576 25.7109C114.532 25.7109 114.489 25.7109 114.445 25.7109C114.401 25.7109 114.358 25.7109 114.314 25.7109C114.27 25.7109 114.225 25.7109 114.181 25.7109C114.137 25.7109 114.093 25.7109 114.048 25.7109C114.004 25.7109 113.959 25.7109 113.914 25.7109C113.869 25.7109 113.824 25.7109 113.779 25.7109C113.734 25.7109 113.689 25.7109 113.644 25.7109C113.599 25.7109 113.553 25.7109 113.508 25.7109C113.462 25.7109 113.416 25.7109 113.37 25.7109C113.325 25.7109 113.279 25.7109 113.233 25.7109C113.187 25.7109 113.14 25.7109 113.094 25.7109C113.048 25.7109 113.001 25.7109 112.955 25.7109C112.908 25.7109 112.861 25.7109 112.814 25.7109C112.768 25.7109 112.721 25.7109 112.674 25.7109C112.627 25.7109 112.579 25.7109 112.532 25.7109C112.485 25.7109 112.437 25.7109 112.39 25.7109C112.342 25.7109 112.294 25.7109 112.246 25.7109C112.199 25.7109 112.151 25.7109 112.102 25.7109C112.054 25.7109 112.006 25.7109 111.958 25.7109C111.909 25.7109 111.861 25.7109 111.812 25.7109C111.764 25.7109 111.715 25.7109 111.666 25.7109C111.617 25.7109 111.568 25.7109 111.519 25.7109C111.47 25.7109 111.421 25.7109 111.372 25.7109C111.323 25.7109 111.273 25.7109 111.223 25.7109C111.174 25.7109 111.124 25.7109 111.074 25.7109C111.025 25.7109 110.975 25.7109 110.925 25.7109C110.875 25.7109 110.824 25.7109 110.774 25.7109C110.724 25.7109 110.674 25.7109 110.623 25.7109C110.572 25.7109 110.522 25.7109 110.471 25.7109C110.42 25.7109 110.369 25.7109 110.318 25.7109C110.267 25.7109 110.216 25.7109 110.165 25.7109C110.114 25.7109 110.063 25.7109 110.011 25.7109C109.96 25.7109 109.908 25.7109 109.856 25.7109C109.805 25.7109 109.753 25.7109 109.701 25.7109C109.649 25.7109 109.597 25.7109 109.545 25.7109C109.493 25.7109 109.44 25.7109 109.388 25.7109C109.336 25.7109 109.283 25.7109 109.231 25.7109C109.178 25.7109 109.125 25.7109 109.072 25.7109C109.02 25.7109 108.967 25.7109 108.914 25.7109C108.861 25.7109 108.807 25.7109 108.754 25.7109C108.701 25.7109 108.647 25.7109 108.594 25.7109C108.54 25.7109 108.487 25.7109 108.433 25.7109C108.379 25.7109 108.325 25.7109 108.271 25.7109C108.218 25.7109 108.163 25.7109 108.109 25.7109C108.055 25.7109 108.001 25.7109 107.946 25.7109C107.892 25.7109 107.838 25.7109 107.783 25.7109C107.728 25.7109 107.674 25.7109 107.619 25.7109C107.564 25.7109 107.509 25.7109 107.454 25.7109C107.399 25.7109 107.344 25.7109 107.289 25.7109C107.233 25.7109 107.178 25.7109 107.122 25.7109C107.067 25.7109 107.011 25.7109 106.956 25.7109C106.9 25.7109 106.844 25.7109 106.788 25.7109C106.732 25.7109 106.676 25.7109 106.62 25.7109C106.564 25.7109 106.508 25.7109 106.452 25.7109C106.395 25.7109 106.339 25.7109 106.282 25.7109C106.226 25.7109 106.169 25.7109 106.113 25.7109C106.056 25.7109 105.999 25.7109 105.942 25.7109C105.885 25.7109 105.828 25.7109 105.771 25.7109C105.714 25.7109 105.657 25.7109 105.599 25.7109C105.542 25.7109 105.484 25.7109 105.427 25.7109C105.369 25.7109 105.312 25.7109 105.254 25.7109C105.196 25.7109 105.138 25.7109 105.08 25.7109C105.022 25.7109 104.964 25.7109 104.906 25.7109C104.848 25.7109 104.79 25.7109 104.731 25.7109C104.673 25.7109 104.615 25.7109 104.556 25.7109C104.497 25.7109 104.439 25.7109 104.38 25.7109C104.321 25.7109 104.262 25.7109 104.204 25.7109C104.145 25.7109 104.086 25.7109 104.026 25.7109C103.967 25.7109 103.908 25.7109 103.849 25.7109C103.789 25.7109 103.73 25.7109 103.67 25.7109C103.611 25.7109 103.551 25.7109 103.492 25.7109C103.432 25.7109 103.372 25.7109 103.312 25.7109C103.252 25.7109 103.192 25.7109 103.132 25.7109C103.072 25.7109 103.012 25.7109 102.952 25.7109C102.891 25.7109 102.831 25.7109 102.77 25.7109C102.71 25.7109 102.649 25.7109 102.589 25.7109C102.528 25.7109 102.467 25.7109 102.407 25.7109C102.346 25.7109 102.285 25.7109 102.224 25.7109C102.163 25.7109 102.102 25.7109 102.04 25.7109C101.979 25.7109 101.918 25.7109 101.856 25.7109C101.795 25.7109 101.734 25.7109 101.672 25.7109C101.611 25.7109 101.549 25.7109 101.487 25.7109C101.425 25.7109 101.364 25.7109 101.302 25.7109C101.24 25.7109 101.178 25.7109 101.116 25.7109C101.053 25.7109 100.991 25.7109 100.929 25.7109C100.867 25.7109 100.804 25.7109 100.742 25.7109C100.679 25.7109 100.617 25.7109 100.554 25.7109C100.492 25.7109 100.429 25.7109 100.366 25.7109C100.303 25.7109 100.24 25.7109 100.177 25.7109C100.115 25.7109 100.051 25.7109 99.9883 25.7109C99.9252 25.7109 99.8619 25.7109 99.7986 25.7109C99.7353 25.7109 99.6719 25.7109 99.6084 25.7109C99.545 25.7109 99.4814 25.7109 99.4177 25.7109C99.3541 25.7109 99.2904 25.7109 99.2265 25.7109C99.1627 25.7109 99.0988 25.7109 99.0349 25.7109C98.9709 25.7109 98.9068 25.7109 98.8427 25.7109C98.7785 25.7109 98.7143 25.7109 98.65 25.7109C98.5857 25.7109 98.5213 25.7109 98.4568 25.7109C98.3924 25.7109 98.3278 25.7109 98.2632 25.7109C98.1986 25.7109 98.1339 25.7109 98.0691 25.7109C98.0043 25.7109 97.9394 25.7109 97.8745 25.7109C97.8095 25.7109 97.7445 25.7109 97.6794 25.7109C97.6143 25.7109 97.5491 25.7109 97.4838 25.7109C97.4186 25.7109 97.3532 25.7109 97.2878 25.7109C97.2224 25.7109 97.1569 25.7109 97.0913 25.7109C97.0257 25.7109 96.9601 25.7109 96.8944 25.7109C96.8286 25.7109 96.7628 25.7109 96.697 25.7109C96.6311 25.7109 96.5651 25.7109 96.4991 25.7109C96.4331 25.7109 96.367 25.7109 96.3008 25.7109C96.2346 25.7109 96.1683 25.7109 96.102 25.7109C96.0357 25.7109 95.9693 25.7109 95.9028 25.7109C95.8363 25.7109 95.7698 25.7109 95.7031 25.7109C95.6365 25.7109 95.5698 25.7109 95.5031 25.7109C95.4363 25.7109 95.3694 25.7109 95.3025 25.7109C95.2356 25.7109 95.1686 25.7109 95.1016 25.7109C95.0345 25.7109 94.9674 25.7109 94.9002 25.7109C94.833 25.7109 94.7657 25.7109 94.6984 25.7109C94.631 25.7109 94.5636 25.7109 94.4961 25.7109C94.4286 25.7109 94.3611 25.7109 94.2935 25.7109C94.2258 25.7109 94.1581 25.7109 94.0904 25.7109C94.0226 25.7109 93.9548 25.7109 93.8869 25.7109C93.819 25.7109 93.751 25.7109 93.683 25.7109C93.615 25.7109 93.5469 25.7109 93.4787 25.7109C93.4105 25.7109 93.3423 25.7109 93.274 25.7109C93.2057 25.7109 93.1373 25.7109 93.0689 25.7109C93.0004 25.7109 92.9319 25.7109 92.8634 25.7109C92.7948 25.7109 92.7262 25.7109 92.6575 25.7109C92.5888 25.7109 92.52 25.7109 92.4512 25.7109C92.3823 25.7109 92.3134 25.7109 92.2445 25.7109C92.1755 25.7109 92.1065 25.7109 92.0374 25.7109C91.9683 25.7109 91.8992 25.7109 91.83 25.7109C91.7608 25.7109 91.6915 25.7109 91.6222 25.7109C91.5528 25.7109 91.4834 25.7109 91.414 25.7109C91.3445 25.7109 91.275 25.7109 91.2054 25.7109C91.1358 25.7109 91.0662 25.7109 90.9965 25.7109C90.9268 25.7109 90.857 25.7109 90.7872 25.7109C90.7173 25.7109 90.6474 25.7109 90.5775 25.7109C90.5075 25.7109 90.4375 25.7109 90.3675 25.7109C90.2974 25.7109 90.2273 25.7109 90.1571 25.7109C90.0869 25.7109 90.0167 25.7109 89.9464 25.7109C89.8761 25.7109 89.8057 25.7109 89.7353 25.7109C89.6649 25.7109 89.5944 25.7109 89.5239 25.7109C89.4533 25.7109 89.3828 25.7109 89.3121 25.7109C89.2415 25.7109 89.1708 25.7109 89.1 25.7109C89.0292 25.7109 88.9584 25.7109 88.8876 25.7109C88.8167 25.7109 88.7458 25.7109 88.6748 25.7109C88.6038 25.7109 88.5328 25.7109 88.4617 25.7109C88.3906 25.7109 88.3195 25.7109 88.2483 25.7109C88.1771 25.7109 88.1058 25.7109 88.0345 25.7109C87.9632 25.7109 87.8919 25.7109 87.8204 25.7109C87.749 25.7109 87.6776 25.7109 87.6061 25.7109C87.5346 25.7109 87.463 25.7109 87.3914 25.7109C87.3197 25.7109 87.2481 25.7109 87.1764 25.7109C87.1046 25.7109 87.0329 25.7109 86.961 25.7109C86.8892 25.7109 86.8174 25.7109 86.7454 25.7109C86.6735 25.7109 86.6015 25.7109 86.5295 25.7109C86.4575 25.7109 86.3854 25.7109 86.3133 25.7109C86.2412 25.7109 86.169 25.7109 86.0968 25.7109C86.0246 25.7109 85.9523 25.7109 85.88 25.7109C85.8077 25.7109 85.7353 25.7109 85.6629 25.7109C85.5905 25.7109 85.518 25.7109 85.4455 25.7109C85.373 25.7109 85.3005 25.7109 85.2279 25.7109C85.1553 25.7109 85.0827 25.7109 85.01 25.7109C84.9373 25.7109 84.8645 25.7109 84.7918 25.7109C84.719 25.7109 84.6462 25.7109 84.5733 25.7109C84.5004 25.7109 84.4275 25.7109 84.3546 25.7109C84.2816 25.7109 84.2086 25.7109 84.1356 25.7109C84.0625 25.7109 83.9894 25.7109 83.9163 25.7109C83.8432 25.7109 83.77 25.7109 83.6968 25.7109C83.6236 25.7109 83.5503 25.7109 83.477 25.7109C83.4037 25.7109 83.3303 25.7109 83.257 25.7109C83.1836 25.7109 83.1101 25.7109 83.0367 25.7109C82.9632 25.7109 82.8897 25.7109 82.8162 25.7109C82.7426 25.7109 82.669 25.7109 82.5954 25.7109C82.5218 25.7109 82.4481 25.7109 82.3744 25.7109C82.3007 25.7109 82.2269 25.7109 82.1532 25.7109C82.0794 25.7109 82.0055 25.7109 81.9317 25.7109C81.8578 25.7109 81.7839 25.7109 81.71 25.7109C81.636 25.7109 81.5621 25.7109 81.4881 25.7109C81.414 25.7109 81.34 25.7109 81.2659 25.7109C81.1918 25.7109 81.1177 25.7109 81.0435 25.7109C80.9694 25.7109 80.8952 25.7109 80.821 25.7109C80.7467 25.7109 80.6725 25.7109 80.5982 25.7109C80.5239 25.7109 80.4495 25.7109 80.3752 25.7109C80.3008 25.7109 80.2264 25.7109 80.152 25.7109C80.0775 25.7109 80.0031 25.7109 79.9286 25.7109C79.854 25.7109 79.7795 25.7109 79.7049 25.7109C79.6304 25.7109 79.5558 25.7109 79.4811 25.7109C79.4065 25.7109 79.3318 25.7109 79.2571 25.7109C79.1824 25.7109 79.1077 25.7109 79.0329 25.7109C78.9582 25.7109 78.8834 25.7109 78.8086 25.7109C78.7337 25.7109 78.6589 25.7109 78.584 25.7109C78.5091 25.7109 78.4342 25.7109 78.3592 25.7109C78.2843 25.7109 78.2093 25.7109 78.1343 25.7109C78.0593 25.7109 77.9843 25.7109 77.9092 25.7109C77.8342 25.7109 77.7591 25.7109 77.684 25.7109C77.6089 25.7109 77.5337 25.7109 77.4585 25.7109C77.3834 25.7109 77.3082 25.7109 77.2329 25.7109C77.1577 25.7109 77.0825 25.7109 77.0072 25.7109C76.9319 25.7109 76.8566 25.7109 76.7813 25.7109C76.7059 25.7109 76.6306 25.7109 76.5552 25.7109C76.4798 25.7109 76.4044 25.7109 76.329 25.7109C76.2536 25.7109 76.1781 25.7109 76.1026 25.7109C76.0271 25.7109 75.9516 25.7109 75.8761 25.7109C75.8006 25.7109 75.725 25.7109 75.6495 25.7109C75.5739 25.7109 75.4983 25.7109 75.4227 25.7109C75.347 25.7109 75.2714 25.7109 75.1957 25.7109C75.1201 25.7109 75.0444 25.7109 74.9687 25.7109C74.893 25.7109 74.8172 25.7109 74.7415 25.7109C74.6657 25.7109 74.59 25.7109 74.5142 25.7109C74.4384 25.7109 74.3626 25.7109 74.2868 25.7109C74.2109 25.7109 74.1351 25.7109 74.0592 25.7109C73.9833 25.7109 73.9074 25.7109 73.8315 25.7109C73.7556 25.7109 73.6797 25.7109 73.6038 25.7109C73.5278 25.7109 73.4518 25.7109 73.3759 25.7109C73.2999 25.7109 73.2239 25.7109 73.1479 25.7109C73.0719 25.7109 72.9958 25.7109 72.9198 25.7109C72.8437 25.7109 72.7677 25.7109 72.6916 25.7109C72.6155 25.7109 72.5394 25.7109 72.4633 25.7109C72.3872 25.7109 72.311 25.7109 72.2349 25.7109C72.1588 25.7109 72.0826 25.7109 72.0064 25.7109C71.9302 25.7109 71.8541 25.7109 71.7779 25.7109C71.7017 25.7109 71.6254 25.7109 71.5492 25.7109C71.473 25.7109 71.3967 25.7109 71.3205 25.7109C71.2442 25.7109 71.168 25.7109 71.0917 25.7109C71.0154 25.7109 70.9391 25.7109 70.8628 25.7109C70.7865 25.7109 70.7102 25.7109 70.6339 25.7109C70.5575 25.7109 70.4812 25.7109 70.4049 25.7109C70.3285 25.7109 70.2522 25.7109 70.1758 25.7109C70.0994 25.7109 70.023 25.7109 69.9466 25.7109C69.8703 25.7109 69.7939 25.7109 69.7175 25.7109C69.641 25.7109 69.5646 25.7109 69.4882 25.7109C69.4118 25.7109 69.3354 25.7109 69.2589 25.7109C69.1825 25.7109 69.106 25.7109 69.0296 25.7109C68.9531 25.7109 68.8766 25.7109 68.8002 25.7109C68.7237 25.7109 68.6472 25.7109 68.5707 25.7109C68.4943 25.7109 68.4178 25.7109 68.3413 25.7109C68.2648 25.7109 68.1883 25.7109 68.1118 25.7109C68.0353 25.7109 67.9588 25.7109 67.8822 25.7109C67.8057 25.7109 67.7292 25.7109 67.6527 25.7109C67.5761 25.7109 67.4996 25.7109 67.4231 25.7109C67.3466 25.7109 67.27 25.7109 67.1935 25.7109C67.1169 25.7109 67.0404 25.7109 66.9638 25.7109C66.8873 25.7109 66.8108 25.7109 66.7342 25.7109C66.6577 25.7109 66.5811 25.7109 66.5046 25.7109C66.428 25.7109 66.3514 25.7109 66.2749 25.7109C66.1983 25.7109 66.1218 25.7109 66.0452 25.7109C65.9687 25.7109 65.8921 25.7109 65.8155 25.7109C65.739 25.7109 65.6624 25.7109 65.5859 25.7109C65.5093 25.7109 65.4328 25.7109 65.3562 25.7109C65.2797 25.7109 65.2031 25.7109 65.1266 25.7109C65.05 25.7109 64.9735 25.7109 64.8969 25.7109C64.8204 25.7109 64.7438 25.7109 64.6673 25.7109C64.5907 25.7109 64.5142 25.7109 64.4377 25.7109C64.3611 25.7109 64.2846 25.7109 64.2081 25.7109C64.1315 25.7109 64.055 25.7109 63.9785 25.7109C63.902 25.7109 63.8255 25.7109 63.7489 25.7109C63.6724 25.7109 63.5959 25.7109 63.5194 25.7109C63.4429 25.7109 63.3664 25.7109 63.29 25.7109C63.2135 25.7109 63.137 25.7109 63.0605 25.7109C62.984 25.7109 62.9076 25.7109 62.8311 25.7109C62.7546 25.7109 62.6782 25.7109 62.6017 25.7109C62.5253 25.7109 62.4489 25.7109 62.3724 25.7109C62.296 25.7109 62.2196 25.7109 62.1432 25.7109C62.0667 25.7109 61.9903 25.7109 61.9139 25.7109C61.8376 25.7109 61.7612 25.7109 61.6848 25.7109C61.6084 25.7109 61.532 25.7109 61.4557 25.7109C61.3793 25.7109 61.303 25.7109 61.2267 25.7109C61.1503 25.7109 61.074 25.7109 60.9977 25.7109C60.9214 25.7109 60.8451 25.7109 60.7688 25.7109C60.6925 25.7109 60.6162 25.7109 60.54 25.7109C60.4637 25.7109 60.3874 25.7109 60.3112 25.7109C60.235 25.7109 60.1587 25.7109 60.0825 25.7109C60.0063 25.7109 59.9301 25.7109 59.8539 25.7109C59.7778 25.7109 59.7016 25.7109 59.6254 25.7109C59.5493 25.7109 59.4731 25.7109 59.397 25.7109C59.3209 25.7109 59.2448 25.7109 59.1687 25.7109C59.0926 25.7109 59.0165 25.7109 58.9405 25.7109C58.8644 25.7109 58.7884 25.7109 58.7123 25.7109C58.6363 25.7109 58.5603 25.7109 58.4843 25.7109C58.4083 25.7109 58.3323 25.7109 58.2564 25.7109C58.1804 25.7109 58.1045 25.7109 58.0285 25.7109C57.9526 25.7109 57.8767 25.7109 57.8008 25.7109C57.725 25.7109 57.6491 25.7109 57.5732 25.7109C57.4974 25.7109 57.4216 25.7109 57.3458 25.7109C57.27 25.7109 57.1942 25.7109 57.1184 25.7109C57.0426 25.7109 56.9669 25.7109 56.8912 25.7109C56.8155 25.7109 56.7398 25.7109 56.6641 25.7109C56.5884 25.7109 56.5127 25.7109 56.4371 25.7109C56.3615 25.7109 56.2859 25.7109 56.2103 25.7109C56.1347 25.7109 56.0591 25.7109 55.9836 25.7109C55.908 25.7109 55.8325 25.7109 55.757 25.7109C55.6815 25.7109 55.606 25.7109 55.5306 25.7109C55.4551 25.7109 55.3797 25.7109 55.3043 25.7109C55.2289 25.7109 55.1535 25.7109 55.0782 25.7109C55.0028 25.7109 54.9275 25.7109 54.8522 25.7109C54.7769 25.7109 54.7016 25.7109 54.6264 25.7109C54.5512 25.7109 54.4759 25.7109 54.4007 25.7109C54.3256 25.7109 54.2504 25.7109 54.1753 25.7109C54.1001 25.7109 54.025 25.7109 53.9499 25.7109C53.8749 25.7109 53.7998 25.7109 53.7248 25.7109C53.6498 25.7109 53.5748 25.7109 53.4998 25.7109C53.4248 25.7109 53.3499 25.7109 53.275 25.7109C53.2001 25.7109 53.1252 25.7109 53.0504 25.7109C52.9755 25.7109 52.9007 25.7109 52.8259 25.7109C52.7511 25.7109 52.6764 25.7109 52.6017 25.7109C52.5269 25.7109 52.4522 25.7109 52.3776 25.7109C52.3029 25.7109 52.2283 25.7109 52.1537 25.7109C52.0791 25.7109 52.0046 25.7109 51.93 25.7109C51.8555 25.7109 51.781 25.7109 51.7065 25.7109C51.6321 25.7109 51.5577 25.7109 51.4833 25.7109C51.4089 25.7109 51.3345 25.7109 51.2602 25.7109C51.1859 25.7109 51.1116 25.7109 51.0373 25.7109C50.9631 25.7109 50.8888 25.7109 50.8147 25.7109C50.7405 25.7109 50.6663 25.7109 50.5922 25.7109C50.5181 25.7109 50.444 25.7109 50.37 25.7109C50.2959 25.7109 50.2219 25.7109 50.148 25.7109C50.074 25.7109 50.0001 25.7109 49.9262 25.7109C49.8523 25.7109 49.7785 25.7109 49.7046 25.7109C49.6308 25.7109 49.5571 25.7109 49.4833 25.7109C49.4096 25.7109 49.3359 25.7109 49.2622 25.7109C49.1886 25.7109 49.115 25.7109 49.0414 25.7109C48.9678 25.7109 48.8943 25.7109 48.8208 25.7109C48.7473 25.7109 48.6738 25.7109 48.6004 25.7109C48.527 25.7109 48.4536 25.7109 48.3803 25.7109C48.307 25.7109 48.2337 25.7109 48.1604 25.7109C48.0872 25.7109 48.014 25.7109 47.9408 25.7109C47.8676 25.7109 47.7945 25.7109 47.7215 25.7109C47.6484 25.7109 47.5753 25.7109 47.5024 25.7109C47.4294 25.7109 47.3564 25.7109 47.2835 25.7109C47.2106 25.7109 47.1378 25.7109 47.065 25.7109C46.9921 25.7109 46.9194 25.7109 46.8467 25.7109C46.7739 25.7109 46.7013 25.7109 46.6286 25.7109C46.556 25.7109 46.4834 25.7109 46.4109 25.7109C46.3383 25.7109 46.2659 25.7109 46.1934 25.7109C46.121 25.7109 46.0486 25.7109 45.9762 25.7109C45.9039 25.7109 45.8316 25.7109 45.7593 25.7109C45.6871 25.7109 45.6149 25.7109 45.5427 25.7109C45.4706 25.7109 45.3984 25.7109 45.3264 25.7109C45.2543 25.7109 45.1823 25.7109 45.1104 25.7109C45.0384 25.7109 44.9665 25.7109 44.8946 25.7109C44.8228 25.7109 44.751 25.7109 44.6792 25.7109C44.6075 25.7109 44.5358 25.7109 44.4641 25.7109C44.3924 25.7109 44.3208 25.7109 44.2493 25.7109C44.1777 25.7109 44.1062 25.7109 44.0348 25.7109C43.9633 25.7109 43.892 25.7109 43.8206 25.7109C43.7493 25.7109 43.678 25.7109 43.6068 25.7109C43.5355 25.7109 43.4643 25.7109 43.3932 25.7109C43.3221 25.7109 43.251 25.7109 43.18 25.7109C43.109 25.7109 43.038 25.7109 42.9671 25.7109C42.8962 25.7109 42.8253 25.7109 42.7545 25.7109C42.6837 25.7109 42.613 25.7109 42.5423 25.7109C42.4716 25.7109 42.401 25.7109 42.3304 25.7109C42.2599 25.7109 42.1893 25.7109 42.1189 25.7109C42.0484 25.7109 41.978 25.7109 41.9077 25.7109C41.8373 25.7109 41.7671 25.7109 41.6968 25.7109C41.6266 25.7109 41.5564 25.7109 41.4863 25.7109C41.4162 25.7109 41.3462 25.7109 41.2762 25.7109C41.2062 25.7109 41.1363 25.7109 41.0664 25.7109C40.9965 25.7109 40.9267 25.7109 40.857 25.7109C40.7872 25.7109 40.7175 25.7109 40.6479 25.7109C40.5783 25.7109 40.5087 25.7109 40.4392 25.7109C40.3697 25.7109 40.3002 25.7109 40.2309 25.7109C40.1615 25.7109 40.0922 25.7109 40.0229 25.7109C39.9536 25.7109 39.8845 25.7109 39.8153 25.7109C39.7462 25.7109 39.6771 25.7109 39.6081 25.7109C39.5391 25.7109 39.4702 25.7109 39.4013 25.7109C39.3324 25.7109 39.2636 25.7109 39.1949 25.7109C39.1261 25.7109 39.0574 25.7109 38.9888 25.7109C38.9202 25.7109 38.8517 25.7109 38.7832 25.7109C38.7147 25.7109 38.6463 25.7109 38.5779 25.7109C38.5096 25.7109 38.4413 25.7109 38.3731 25.7109C38.3049 25.7109 38.2367 25.7109 38.1686 25.7109C38.1005 25.7109 38.0325 25.7109 37.9646 25.7109C37.8966 25.7109 37.8288 25.7109 37.7609 25.7109C37.6931 25.7109 37.6254 25.7109 37.5577 25.7109C37.49 25.7109 37.4224 25.7109 37.3549 25.7109C37.2874 25.7109 37.2199 25.7109 37.1525 25.7109C37.0851 25.7109 37.0178 25.7109 36.9505 25.7109C36.8833 25.7109 36.8161 25.7109 36.749 25.7109C36.6819 25.7109 36.6149 25.7109 36.5479 25.7109C36.4809 25.7109 36.414 25.7109 36.3472 25.7109C36.2804 25.7109 36.2136 25.7109 36.147 25.7109V35.7109V45.7109C36.2136 45.7109 36.2804 45.7109 36.3472 45.7109C36.414 45.7109 36.4809 45.7109 36.5479 45.7109C36.6149 45.7109 36.6819 45.7109 36.749 45.7109C36.8161 45.7109 36.8833 45.7109 36.9505 45.7109C37.0178 45.7109 37.0851 45.7109 37.1525 45.7109C37.2199 45.7109 37.2874 45.7109 37.3549 45.7109C37.4224 45.7109 37.49 45.7109 37.5577 45.7109C37.6254 45.7109 37.6931 45.7109 37.7609 45.7109C37.8288 45.7109 37.8966 45.7109 37.9646 45.7109C38.0325 45.7109 38.1005 45.7109 38.1686 45.7109C38.2367 45.7109 38.3049 45.7109 38.3731 45.7109C38.4413 45.7109 38.5096 45.7109 38.5779 45.7109C38.6463 45.7109 38.7147 45.7109 38.7832 45.7109C38.8517 45.7109 38.9202 45.7109 38.9888 45.7109C39.0574 45.7109 39.1261 45.7109 39.1949 45.7109C39.2636 45.7109 39.3324 45.7109 39.4013 45.7109C39.4702 45.7109 39.5391 45.7109 39.6081 45.7109C39.6771 45.7109 39.7462 45.7109 39.8153 45.7109C39.8845 45.7109 39.9536 45.7109 40.0229 45.7109C40.0922 45.7109 40.1615 45.7109 40.2309 45.7109C40.3002 45.7109 40.3697 45.7109 40.4392 45.7109C40.5087 45.7109 40.5783 45.7109 40.6479 45.7109C40.7175 45.7109 40.7872 45.7109 40.857 45.7109C40.9267 45.7109 40.9965 45.7109 41.0664 45.7109C41.1363 45.7109 41.2062 45.7109 41.2762 45.7109C41.3462 45.7109 41.4162 45.7109 41.4863 45.7109C41.5564 45.7109 41.6266 45.7109 41.6968 45.7109C41.7671 45.7109 41.8373 45.7109 41.9077 45.7109C41.978 45.7109 42.0484 45.7109 42.1189 45.7109C42.1893 45.7109 42.2599 45.7109 42.3304 45.7109C42.401 45.7109 42.4716 45.7109 42.5423 45.7109C42.613 45.7109 42.6837 45.7109 42.7545 45.7109C42.8253 45.7109 42.8962 45.7109 42.9671 45.7109C43.038 45.7109 43.109 45.7109 43.18 45.7109C43.251 45.7109 43.3221 45.7109 43.3932 45.7109C43.4643 45.7109 43.5355 45.7109 43.6068 45.7109C43.678 45.7109 43.7493 45.7109 43.8206 45.7109C43.892 45.7109 43.9633 45.7109 44.0348 45.7109C44.1062 45.7109 44.1777 45.7109 44.2493 45.7109C44.3208 45.7109 44.3924 45.7109 44.4641 45.7109C44.5358 45.7109 44.6075 45.7109 44.6792 45.7109C44.751 45.7109 44.8228 45.7109 44.8946 45.7109C44.9665 45.7109 45.0384 45.7109 45.1104 45.7109C45.1823 45.7109 45.2543 45.7109 45.3264 45.7109C45.3984 45.7109 45.4706 45.7109 45.5427 45.7109C45.6149 45.7109 45.6871 45.7109 45.7593 45.7109C45.8316 45.7109 45.9039 45.7109 45.9762 45.7109C46.0486 45.7109 46.121 45.7109 46.1934 45.7109C46.2659 45.7109 46.3383 45.7109 46.4109 45.7109C46.4834 45.7109 46.556 45.7109 46.6286 45.7109C46.7013 45.7109 46.7739 45.7109 46.8467 45.7109C46.9194 45.7109 46.9921 45.7109 47.065 45.7109C47.1378 45.7109 47.2106 45.7109 47.2835 45.7109C47.3564 45.7109 47.4294 45.7109 47.5024 45.7109C47.5753 45.7109 47.6484 45.7109 47.7215 45.7109C47.7945 45.7109 47.8676 45.7109 47.9408 45.7109C48.014 45.7109 48.0872 45.7109 48.1604 45.7109C48.2337 45.7109 48.307 45.7109 48.3803 45.7109C48.4536 45.7109 48.527 45.7109 48.6004 45.7109C48.6738 45.7109 48.7473 45.7109 48.8208 45.7109C48.8943 45.7109 48.9678 45.7109 49.0414 45.7109C49.115 45.7109 49.1886 45.7109 49.2622 45.7109C49.3359 45.7109 49.4096 45.7109 49.4833 45.7109C49.5571 45.7109 49.6308 45.7109 49.7046 45.7109C49.7785 45.7109 49.8523 45.7109 49.9262 45.7109C50.0001 45.7109 50.074 45.7109 50.148 45.7109C50.2219 45.7109 50.2959 45.7109 50.37 45.7109C50.444 45.7109 50.5181 45.7109 50.5922 45.7109C50.6663 45.7109 50.7405 45.7109 50.8147 45.7109C50.8888 45.7109 50.9631 45.7109 51.0373 45.7109C51.1116 45.7109 51.1859 45.7109 51.2602 45.7109C51.3345 45.7109 51.4089 45.7109 51.4833 45.7109C51.5577 45.7109 51.6321 45.7109 51.7065 45.7109C51.781 45.7109 51.8555 45.7109 51.93 45.7109C52.0046 45.7109 52.0791 45.7109 52.1537 45.7109C52.2283 45.7109 52.3029 45.7109 52.3776 45.7109C52.4522 45.7109 52.5269 45.7109 52.6017 45.7109C52.6764 45.7109 52.7511 45.7109 52.8259 45.7109C52.9007 45.7109 52.9755 45.7109 53.0504 45.7109C53.1252 45.7109 53.2001 45.7109 53.275 45.7109C53.3499 45.7109 53.4248 45.7109 53.4998 45.7109C53.5748 45.7109 53.6498 45.7109 53.7248 45.7109C53.7998 45.7109 53.8749 45.7109 53.9499 45.7109C54.025 45.7109 54.1001 45.7109 54.1753 45.7109C54.2504 45.7109 54.3256 45.7109 54.4007 45.7109C54.4759 45.7109 54.5512 45.7109 54.6264 45.7109C54.7016 45.7109 54.7769 45.7109 54.8522 45.7109C54.9275 45.7109 55.0028 45.7109 55.0782 45.7109C55.1535 45.7109 55.2289 45.7109 55.3043 45.7109C55.3797 45.7109 55.4551 45.7109 55.5306 45.7109C55.606 45.7109 55.6815 45.7109 55.757 45.7109C55.8325 45.7109 55.908 45.7109 55.9836 45.7109C56.0591 45.7109 56.1347 45.7109 56.2103 45.7109C56.2859 45.7109 56.3615 45.7109 56.4371 45.7109C56.5127 45.7109 56.5884 45.7109 56.6641 45.7109C56.7398 45.7109 56.8155 45.7109 56.8912 45.7109C56.9669 45.7109 57.0426 45.7109 57.1184 45.7109C57.1942 45.7109 57.27 45.7109 57.3458 45.7109C57.4216 45.7109 57.4974 45.7109 57.5732 45.7109C57.6491 45.7109 57.725 45.7109 57.8008 45.7109C57.8767 45.7109 57.9526 45.7109 58.0285 45.7109C58.1045 45.7109 58.1804 45.7109 58.2564 45.7109C58.3323 45.7109 58.4083 45.7109 58.4843 45.7109C58.5603 45.7109 58.6363 45.7109 58.7123 45.7109C58.7884 45.7109 58.8644 45.7109 58.9405 45.7109C59.0165 45.7109 59.0926 45.7109 59.1687 45.7109C59.2448 45.7109 59.3209 45.7109 59.397 45.7109C59.4731 45.7109 59.5493 45.7109 59.6254 45.7109C59.7016 45.7109 59.7778 45.7109 59.8539 45.7109C59.9301 45.7109 60.0063 45.7109 60.0825 45.7109C60.1587 45.7109 60.235 45.7109 60.3112 45.7109C60.3874 45.7109 60.4637 45.7109 60.54 45.7109C60.6162 45.7109 60.6925 45.7109 60.7688 45.7109C60.8451 45.7109 60.9214 45.7109 60.9977 45.7109C61.074 45.7109 61.1503 45.7109 61.2267 45.7109C61.303 45.7109 61.3793 45.7109 61.4557 45.7109C61.532 45.7109 61.6084 45.7109 61.6848 45.7109C61.7612 45.7109 61.8376 45.7109 61.9139 45.7109C61.9903 45.7109 62.0667 45.7109 62.1432 45.7109C62.2196 45.7109 62.296 45.7109 62.3724 45.7109C62.4489 45.7109 62.5253 45.7109 62.6017 45.7109C62.6782 45.7109 62.7546 45.7109 62.8311 45.7109C62.9076 45.7109 62.984 45.7109 63.0605 45.7109C63.137 45.7109 63.2135 45.7109 63.29 45.7109C63.3664 45.7109 63.4429 45.7109 63.5194 45.7109C63.5959 45.7109 63.6724 45.7109 63.7489 45.7109C63.8255 45.7109 63.902 45.7109 63.9785 45.7109C64.055 45.7109 64.1315 45.7109 64.2081 45.7109C64.2846 45.7109 64.3611 45.7109 64.4377 45.7109C64.5142 45.7109 64.5907 45.7109 64.6673 45.7109C64.7438 45.7109 64.8204 45.7109 64.8969 45.7109C64.9735 45.7109 65.05 45.7109 65.1266 45.7109C65.2031 45.7109 65.2797 45.7109 65.3562 45.7109C65.4328 45.7109 65.5093 45.7109 65.5859 45.7109C65.6624 45.7109 65.739 45.7109 65.8155 45.7109C65.8921 45.7109 65.9687 45.7109 66.0452 45.7109C66.1218 45.7109 66.1983 45.7109 66.2749 45.7109C66.3514 45.7109 66.428 45.7109 66.5046 45.7109C66.5811 45.7109 66.6577 45.7109 66.7342 45.7109C66.8108 45.7109 66.8873 45.7109 66.9638 45.7109C67.0404 45.7109 67.1169 45.7109 67.1935 45.7109C67.27 45.7109 67.3466 45.7109 67.4231 45.7109C67.4996 45.7109 67.5761 45.7109 67.6527 45.7109C67.7292 45.7109 67.8057 45.7109 67.8822 45.7109C67.9588 45.7109 68.0353 45.7109 68.1118 45.7109C68.1883 45.7109 68.2648 45.7109 68.3413 45.7109C68.4178 45.7109 68.4943 45.7109 68.5707 45.7109C68.6472 45.7109 68.7237 45.7109 68.8002 45.7109C68.8766 45.7109 68.9531 45.7109 69.0296 45.7109C69.106 45.7109 69.1825 45.7109 69.2589 45.7109C69.3354 45.7109 69.4118 45.7109 69.4882 45.7109C69.5646 45.7109 69.641 45.7109 69.7175 45.7109C69.7939 45.7109 69.8703 45.7109 69.9466 45.7109C70.023 45.7109 70.0994 45.7109 70.1758 45.7109C70.2522 45.7109 70.3285 45.7109 70.4049 45.7109C70.4812 45.7109 70.5575 45.7109 70.6339 45.7109C70.7102 45.7109 70.7865 45.7109 70.8628 45.7109C70.9391 45.7109 71.0154 45.7109 71.0917 45.7109C71.168 45.7109 71.2442 45.7109 71.3205 45.7109C71.3967 45.7109 71.473 45.7109 71.5492 45.7109C71.6254 45.7109 71.7017 45.7109 71.7779 45.7109C71.8541 45.7109 71.9302 45.7109 72.0064 45.7109C72.0826 45.7109 72.1588 45.7109 72.2349 45.7109C72.311 45.7109 72.3872 45.7109 72.4633 45.7109C72.5394 45.7109 72.6155 45.7109 72.6916 45.7109C72.7677 45.7109 72.8437 45.7109 72.9198 45.7109C72.9958 45.7109 73.0719 45.7109 73.1479 45.7109C73.2239 45.7109 73.2999 45.7109 73.3759 45.7109C73.4518 45.7109 73.5278 45.7109 73.6038 45.7109C73.6797 45.7109 73.7556 45.7109 73.8315 45.7109C73.9074 45.7109 73.9833 45.7109 74.0592 45.7109C74.1351 45.7109 74.2109 45.7109 74.2868 45.7109C74.3626 45.7109 74.4384 45.7109 74.5142 45.7109C74.59 45.7109 74.6657 45.7109 74.7415 45.7109C74.8172 45.7109 74.893 45.7109 74.9687 45.7109C75.0444 45.7109 75.1201 45.7109 75.1957 45.7109C75.2714 45.7109 75.347 45.7109 75.4227 45.7109C75.4983 45.7109 75.5739 45.7109 75.6495 45.7109C75.725 45.7109 75.8006 45.7109 75.8761 45.7109C75.9516 45.7109 76.0271 45.7109 76.1026 45.7109C76.1781 45.7109 76.2536 45.7109 76.329 45.7109C76.4044 45.7109 76.4798 45.7109 76.5552 45.7109C76.6306 45.7109 76.7059 45.7109 76.7813 45.7109C76.8566 45.7109 76.9319 45.7109 77.0072 45.7109C77.0825 45.7109 77.1577 45.7109 77.2329 45.7109C77.3082 45.7109 77.3834 45.7109 77.4585 45.7109C77.5337 45.7109 77.6089 45.7109 77.684 45.7109C77.7591 45.7109 77.8342 45.7109 77.9092 45.7109C77.9843 45.7109 78.0593 45.7109 78.1343 45.7109C78.2093 45.7109 78.2843 45.7109 78.3592 45.7109C78.4342 45.7109 78.5091 45.7109 78.584 45.7109C78.6589 45.7109 78.7337 45.7109 78.8086 45.7109C78.8834 45.7109 78.9582 45.7109 79.0329 45.7109C79.1077 45.7109 79.1824 45.7109 79.2571 45.7109C79.3318 45.7109 79.4065 45.7109 79.4811 45.7109C79.5558 45.7109 79.6304 45.7109 79.7049 45.7109C79.7795 45.7109 79.854 45.7109 79.9286 45.7109C80.0031 45.7109 80.0775 45.7109 80.152 45.7109C80.2264 45.7109 80.3008 45.7109 80.3752 45.7109C80.4495 45.7109 80.5239 45.7109 80.5982 45.7109C80.6725 45.7109 80.7467 45.7109 80.821 45.7109C80.8952 45.7109 80.9694 45.7109 81.0435 45.7109C81.1177 45.7109 81.1918 45.7109 81.2659 45.7109C81.34 45.7109 81.414 45.7109 81.4881 45.7109C81.5621 45.7109 81.636 45.7109 81.71 45.7109C81.7839 45.7109 81.8578 45.7109 81.9317 45.7109C82.0055 45.7109 82.0794 45.7109 82.1532 45.7109C82.2269 45.7109 82.3007 45.7109 82.3744 45.7109C82.4481 45.7109 82.5218 45.7109 82.5954 45.7109C82.669 45.7109 82.7426 45.7109 82.8162 45.7109C82.8897 45.7109 82.9632 45.7109 83.0367 45.7109C83.1101 45.7109 83.1836 45.7109 83.257 45.7109C83.3303 45.7109 83.4037 45.7109 83.477 45.7109C83.5503 45.7109 83.6236 45.7109 83.6968 45.7109C83.77 45.7109 83.8432 45.7109 83.9163 45.7109C83.9894 45.7109 84.0625 45.7109 84.1356 45.7109C84.2086 45.7109 84.2816 45.7109 84.3546 45.7109C84.4275 45.7109 84.5004 45.7109 84.5733 45.7109C84.6462 45.7109 84.719 45.7109 84.7918 45.7109C84.8645 45.7109 84.9373 45.7109 85.01 45.7109C85.0827 45.7109 85.1553 45.7109 85.2279 45.7109C85.3005 45.7109 85.373 45.7109 85.4455 45.7109C85.518 45.7109 85.5905 45.7109 85.6629 45.7109C85.7353 45.7109 85.8077 45.7109 85.88 45.7109C85.9523 45.7109 86.0246 45.7109 86.0968 45.7109C86.169 45.7109 86.2412 45.7109 86.3133 45.7109C86.3854 45.7109 86.4575 45.7109 86.5295 45.7109C86.6015 45.7109 86.6735 45.7109 86.7454 45.7109C86.8174 45.7109 86.8892 45.7109 86.961 45.7109C87.0329 45.7109 87.1046 45.7109 87.1764 45.7109C87.2481 45.7109 87.3197 45.7109 87.3914 45.7109C87.463 45.7109 87.5346 45.7109 87.6061 45.7109C87.6776 45.7109 87.749 45.7109 87.8204 45.7109C87.8919 45.7109 87.9632 45.7109 88.0345 45.7109C88.1058 45.7109 88.1771 45.7109 88.2483 45.7109C88.3195 45.7109 88.3906 45.7109 88.4617 45.7109C88.5328 45.7109 88.6038 45.7109 88.6748 45.7109C88.7458 45.7109 88.8167 45.7109 88.8876 45.7109C88.9584 45.7109 89.0292 45.7109 89.1 45.7109C89.1708 45.7109 89.2415 45.7109 89.3121 45.7109C89.3828 45.7109 89.4533 45.7109 89.5239 45.7109C89.5944 45.7109 89.6649 45.7109 89.7353 45.7109C89.8057 45.7109 89.8761 45.7109 89.9464 45.7109C90.0167 45.7109 90.0869 45.7109 90.1571 45.7109C90.2273 45.7109 90.2974 45.7109 90.3675 45.7109C90.4375 45.7109 90.5075 45.7109 90.5775 45.7109C90.6474 45.7109 90.7173 45.7109 90.7872 45.7109C90.857 45.7109 90.9268 45.7109 90.9965 45.7109C91.0662 45.7109 91.1358 45.7109 91.2054 45.7109C91.275 45.7109 91.3445 45.7109 91.414 45.7109C91.4834 45.7109 91.5528 45.7109 91.6222 45.7109C91.6915 45.7109 91.7608 45.7109 91.83 45.7109C91.8992 45.7109 91.9683 45.7109 92.0374 45.7109C92.1065 45.7109 92.1755 45.7109 92.2445 45.7109C92.3134 45.7109 92.3823 45.7109 92.4512 45.7109C92.52 45.7109 92.5888 45.7109 92.6575 45.7109C92.7262 45.7109 92.7948 45.7109 92.8634 45.7109C92.9319 45.7109 93.0004 45.7109 93.0689 45.7109C93.1373 45.7109 93.2057 45.7109 93.274 45.7109C93.3423 45.7109 93.4105 45.7109 93.4787 45.7109C93.5469 45.7109 93.615 45.7109 93.683 45.7109C93.751 45.7109 93.819 45.7109 93.8869 45.7109C93.9548 45.7109 94.0226 45.7109 94.0904 45.7109C94.1581 45.7109 94.2258 45.7109 94.2935 45.7109C94.3611 45.7109 94.4286 45.7109 94.4961 45.7109C94.5636 45.7109 94.631 45.7109 94.6984 45.7109C94.7657 45.7109 94.833 45.7109 94.9002 45.7109C94.9674 45.7109 95.0345 45.7109 95.1016 45.7109C95.1686 45.7109 95.2356 45.7109 95.3025 45.7109C95.3694 45.7109 95.4363 45.7109 95.5031 45.7109C95.5698 45.7109 95.6365 45.7109 95.7031 45.7109C95.7698 45.7109 95.8363 45.7109 95.9028 45.7109C95.9693 45.7109 96.0357 45.7109 96.102 45.7109C96.1683 45.7109 96.2346 45.7109 96.3008 45.7109C96.367 45.7109 96.4331 45.7109 96.4991 45.7109C96.5651 45.7109 96.6311 45.7109 96.697 45.7109C96.7628 45.7109 96.8286 45.7109 96.8944 45.7109C96.9601 45.7109 97.0257 45.7109 97.0913 45.7109C97.1569 45.7109 97.2224 45.7109 97.2878 45.7109C97.3532 45.7109 97.4186 45.7109 97.4838 45.7109C97.5491 45.7109 97.6143 45.7109 97.6794 45.7109C97.7445 45.7109 97.8095 45.7109 97.8745 45.7109C97.9394 45.7109 98.0043 45.7109 98.0691 45.7109C98.1339 45.7109 98.1986 45.7109 98.2632 45.7109C98.3278 45.7109 98.3924 45.7109 98.4568 45.7109C98.5213 45.7109 98.5857 45.7109 98.65 45.7109C98.7143 45.7109 98.7785 45.7109 98.8427 45.7109C98.9068 45.7109 98.9709 45.7109 99.0349 45.7109C99.0988 45.7109 99.1627 45.7109 99.2265 45.7109C99.2904 45.7109 99.3541 45.7109 99.4177 45.7109C99.4814 45.7109 99.545 45.7109 99.6084 45.7109C99.6719 45.7109 99.7353 45.7109 99.7986 45.7109C99.8619 45.7109 99.9252 45.7109 99.9883 45.7109C100.051 45.7109 100.115 45.7109 100.177 45.7109C100.24 45.7109 100.303 45.7109 100.366 45.7109C100.429 45.7109 100.492 45.7109 100.554 45.7109C100.617 45.7109 100.679 45.7109 100.742 45.7109C100.804 45.7109 100.867 45.7109 100.929 45.7109C100.991 45.7109 101.053 45.7109 101.116 45.7109C101.178 45.7109 101.24 45.7109 101.302 45.7109C101.364 45.7109 101.425 45.7109 101.487 45.7109C101.549 45.7109 101.611 45.7109 101.672 45.7109C101.734 45.7109 101.795 45.7109 101.856 45.7109C101.918 45.7109 101.979 45.7109 102.04 45.7109C102.102 45.7109 102.163 45.7109 102.224 45.7109C102.285 45.7109 102.346 45.7109 102.407 45.7109C102.467 45.7109 102.528 45.7109 102.589 45.7109C102.649 45.7109 102.71 45.7109 102.77 45.7109C102.831 45.7109 102.891 45.7109 102.952 45.7109C103.012 45.7109 103.072 45.7109 103.132 45.7109C103.192 45.7109 103.252 45.7109 103.312 45.7109C103.372 45.7109 103.432 45.7109 103.492 45.7109C103.551 45.7109 103.611 45.7109 103.67 45.7109C103.73 45.7109 103.789 45.7109 103.849 45.7109C103.908 45.7109 103.967 45.7109 104.026 45.7109C104.086 45.7109 104.145 45.7109 104.204 45.7109C104.262 45.7109 104.321 45.7109 104.38 45.7109C104.439 45.7109 104.497 45.7109 104.556 45.7109C104.615 45.7109 104.673 45.7109 104.731 45.7109C104.79 45.7109 104.848 45.7109 104.906 45.7109C104.964 45.7109 105.022 45.7109 105.08 45.7109C105.138 45.7109 105.196 45.7109 105.254 45.7109C105.312 45.7109 105.369 45.7109 105.427 45.7109C105.484 45.7109 105.542 45.7109 105.599 45.7109C105.657 45.7109 105.714 45.7109 105.771 45.7109C105.828 45.7109 105.885 45.7109 105.942 45.7109C105.999 45.7109 106.056 45.7109 106.113 45.7109C106.169 45.7109 106.226 45.7109 106.282 45.7109C106.339 45.7109 106.395 45.7109 106.452 45.7109C106.508 45.7109 106.564 45.7109 106.62 45.7109C106.676 45.7109 106.732 45.7109 106.788 45.7109C106.844 45.7109 106.9 45.7109 106.956 45.7109C107.011 45.7109 107.067 45.7109 107.122 45.7109C107.178 45.7109 107.233 45.7109 107.289 45.7109C107.344 45.7109 107.399 45.7109 107.454 45.7109C107.509 45.7109 107.564 45.7109 107.619 45.7109C107.674 45.7109 107.728 45.7109 107.783 45.7109C107.838 45.7109 107.892 45.7109 107.946 45.7109C108.001 45.7109 108.055 45.7109 108.109 45.7109C108.163 45.7109 108.218 45.7109 108.271 45.7109C108.325 45.7109 108.379 45.7109 108.433 45.7109C108.487 45.7109 108.54 45.7109 108.594 45.7109C108.647 45.7109 108.701 45.7109 108.754 45.7109C108.807 45.7109 108.861 45.7109 108.914 45.7109C108.967 45.7109 109.02 45.7109 109.072 45.7109C109.125 45.7109 109.178 45.7109 109.231 45.7109C109.283 45.7109 109.336 45.7109 109.388 45.7109C109.44 45.7109 109.493 45.7109 109.545 45.7109C109.597 45.7109 109.649 45.7109 109.701 45.7109C109.753 45.7109 109.805 45.7109 109.856 45.7109C109.908 45.7109 109.96 45.7109 110.011 45.7109C110.063 45.7109 110.114 45.7109 110.165 45.7109C110.216 45.7109 110.267 45.7109 110.318 45.7109C110.369 45.7109 110.42 45.7109 110.471 45.7109C110.522 45.7109 110.572 45.7109 110.623 45.7109C110.674 45.7109 110.724 45.7109 110.774 45.7109C110.824 45.7109 110.875 45.7109 110.925 45.7109C110.975 45.7109 111.025 45.7109 111.074 45.7109C111.124 45.7109 111.174 45.7109 111.223 45.7109C111.273 45.7109 111.323 45.7109 111.372 45.7109C111.421 45.7109 111.47 45.7109 111.519 45.7109C111.568 45.7109 111.617 45.7109 111.666 45.7109C111.715 45.7109 111.764 45.7109 111.812 45.7109C111.861 45.7109 111.909 45.7109 111.958 45.7109C112.006 45.7109 112.054 45.7109 112.102 45.7109C112.151 45.7109 112.199 45.7109 112.246 45.7109C112.294 45.7109 112.342 45.7109 112.39 45.7109C112.437 45.7109 112.485 45.7109 112.532 45.7109C112.579 45.7109 112.627 45.7109 112.674 45.7109C112.721 45.7109 112.768 45.7109 112.814 45.7109C112.861 45.7109 112.908 45.7109 112.955 45.7109C113.001 45.7109 113.048 45.7109 113.094 45.7109C113.14 45.7109 113.187 45.7109 113.233 45.7109C113.279 45.7109 113.325 45.7109 113.37 45.7109C113.416 45.7109 113.462 45.7109 113.508 45.7109C113.553 45.7109 113.599 45.7109 113.644 45.7109C113.689 45.7109 113.734 45.7109 113.779 45.7109C113.824 45.7109 113.869 45.7109 113.914 45.7109C113.959 45.7109 114.004 45.7109 114.048 45.7109C114.093 45.7109 114.137 45.7109 114.181 45.7109C114.225 45.7109 114.27 45.7109 114.314 45.7109C114.358 45.7109 114.401 45.7109 114.445 45.7109C114.489 45.7109 114.532 45.7109 114.576 45.7109C114.619 45.7109 114.663 45.7109 114.706 45.7109C114.749 45.7109 114.792 45.7109 114.835 45.7109C114.878 45.7109 114.921 45.7109 114.963 45.7109C115.006 45.7109 115.049 45.7109 115.091 45.7109C115.133 45.7109 115.176 45.7109 115.218 45.7109C115.26 45.7109 115.302 45.7109 115.344 45.7109C115.385 45.7109 115.427 45.7109 115.469 45.7109C115.51 45.7109 115.552 45.7109 115.593 45.7109C115.634 45.7109 115.675 45.7109 115.716 45.7109C115.757 45.7109 115.798 45.7109 115.839 45.7109C115.88 45.7109 115.92 45.7109 115.961 45.7109C116.001 45.7109 116.042 45.7109 116.082 45.7109C116.122 45.7109 116.162 45.7109 116.202 45.7109C116.242 45.7109 116.281 45.7109 116.321 45.7109C116.361 45.7109 116.4 45.7109 116.439 45.7109C116.479 45.7109 116.518 45.7109 116.557 45.7109C116.596 45.7109 116.635 45.7109 116.674 45.7109C116.712 45.7109 116.751 45.7109 116.79 45.7109C116.828 45.7109 116.866 45.7109 116.905 45.7109C116.943 45.7109 116.981 45.7109 117.019 45.7109C117.057 45.7109 117.094 45.7109 117.132 45.7109C117.17 45.7109 117.207 45.7109 117.244 45.7109C117.282 45.7109 117.319 45.7109 117.356 45.7109C117.393 45.7109 117.43 45.7109 117.466 45.7109C117.503 45.7109 117.54 45.7109 117.576 45.7109C117.613 45.7109 117.649 45.7109 117.685 45.7109C117.721 45.7109 117.757 45.7109 117.793 45.7109C117.829 45.7109 117.865 45.7109 117.9 45.7109C117.936 45.7109 117.971 45.7109 118.006 45.7109C118.042 45.7109 118.077 45.7109 118.112 45.7109C118.147 45.7109 118.181 45.7109 118.216 45.7109C118.251 45.7109 118.285 45.7109 118.32 45.7109C118.354 45.7109 118.388 45.7109 118.422 45.7109C118.456 45.7109 118.49 45.7109 118.524 45.7109C118.558 45.7109 118.591 45.7109 118.625 45.7109C118.658 45.7109 118.691 45.7109 118.725 45.7109C118.758 45.7109 118.791 45.7109 118.824 45.7109C118.856 45.7109 118.889 45.7109 118.922 45.7109C118.954 45.7109 118.986 45.7109 119.019 45.7109C119.051 45.7109 119.083 45.7109 119.115 45.7109C119.147 45.7109 119.178 45.7109 119.21 45.7109C119.242 45.7109 119.273 45.7109 119.304 45.7109C119.336 45.7109 119.367 45.7109 119.398 45.7109C119.429 45.7109 119.46 45.7109 119.49 45.7109C119.521 45.7109 119.551 45.7109 119.582 45.7109C119.612 45.7109 119.642 45.7109 119.672 45.7109C119.702 45.7109 119.732 45.7109 119.762 45.7109C119.791 45.7109 119.821 45.7109 119.85 45.7109C119.88 45.7109 119.909 45.7109 119.938 45.7109C119.967 45.7109 119.996 45.7109 120.025 45.7109C120.054 45.7109 120.082 45.7109 120.111 45.7109C120.139 45.7109 120.167 45.7109 120.195 45.7109C120.223 45.7109 120.251 45.7109 120.279 45.7109C120.307 45.7109 120.335 45.7109 120.362 45.7109C120.389 45.7109 120.417 45.7109 120.444 45.7109C120.471 45.7109 120.498 45.7109 120.525 45.7109C120.552 45.7109 120.578 45.7109 120.605 45.7109C120.631 45.7109 120.657 45.7109 120.684 45.7109C120.71 45.7109 120.736 45.7109 120.761 45.7109C120.787 45.7109 120.813 45.7109 120.838 45.7109C120.864 45.7109 120.889 45.7109 120.914 45.7109C120.94 45.7109 120.964 45.7109 120.989 45.7109C121.014 45.7109 121.039 45.7109 121.063 45.7109C121.088 45.7109 121.112 45.7109 121.136 45.7109C121.16 45.7109 121.184 45.7109 121.208 45.7109C121.232 45.7109 121.256 45.7109 121.279 45.7109C121.302 45.7109 121.326 45.7109 121.349 45.7109C121.372 45.7109 121.395 45.7109 121.418 45.7109C121.441 45.7109 121.463 45.7109 121.486 45.7109C121.508 45.7109 121.53 45.7109 121.552 45.7109C121.575 45.7109 121.596 45.7109 121.618 45.7109C121.64 45.7109 121.662 45.7109 121.683 45.7109C121.704 45.7109 121.726 45.7109 121.747 45.7109C121.768 45.7109 121.789 45.7109 121.809 45.7109C121.83 45.7109 121.851 45.7109 121.871 45.7109C121.891 45.7109 121.912 45.7109 121.932 45.7109C121.952 45.7109 121.972 45.7109 121.991 45.7109C122.011 45.7109 122.03 45.7109 122.05 45.7109C122.069 45.7109 122.088 45.7109 122.107 45.7109C122.126 45.7109 122.145 45.7109 122.164 45.7109C122.182 45.7109 122.201 45.7109 122.219 45.7109C122.237 45.7109 122.255 45.7109 122.273 45.7109C122.291 45.7109 122.309 45.7109 122.326 45.7109C122.344 45.7109 122.361 45.7109 122.379 45.7109C122.396 45.7109 122.413 45.7109 122.43 45.7109C122.446 45.7109 122.463 45.7109 122.48 45.7109C122.496 45.7109 122.512 45.7109 122.528 45.7109C122.545 45.7109 122.561 45.7109 122.576 45.7109C122.592 45.7109 122.608 45.7109 122.623 45.7109C122.638 45.7109 122.654 45.7109 122.669 45.7109C122.684 45.7109 122.699 45.7109 122.713 45.7109C122.728 45.7109 122.742 45.7109 122.757 45.7109C122.771 45.7109 122.785 45.7109 122.799 45.7109C122.813 45.7109 122.827 45.7109 122.84 45.7109C122.854 45.7109 122.867 45.7109 122.88 45.7109C122.894 45.7109 122.907 45.7109 122.919 45.7109C122.932 45.7109 122.945 45.7109 122.957 45.7109C122.97 45.7109 122.982 45.7109 122.994 45.7109C123.006 45.7109 123.018 45.7109 123.03 45.7109C123.042 45.7109 123.053 45.7109 123.064 45.7109C123.076 45.7109 123.087 45.7109 123.098 45.7109C123.109 45.7109 123.12 45.7109 123.13 45.7109C123.141 45.7109 123.151 45.7109 123.161 45.7109C123.172 45.7109 123.182 45.7109 123.191 45.7109C123.201 45.7109 123.211 45.7109 123.22 45.7109C123.23 45.7109 123.239 45.7109 123.248 45.7109C123.257 45.7109 123.266 45.7109 123.275 45.7109C123.283 45.7109 123.292 45.7109 123.3 45.7109C123.308 45.7109 123.317 45.7109 123.325 45.7109C123.332 45.7109 123.34 45.7109 123.348 45.7109C123.355 45.7109 123.363 45.7109 123.37 45.7109C123.377 45.7109 123.384 45.7109 123.391 45.7109C123.397 45.7109 123.404 45.7109 123.41 45.7109C123.417 45.7109 123.423 45.7109 123.429 45.7109C123.435 45.7109 123.44 45.7109 123.446 45.7109C123.452 45.7109 123.457 45.7109 123.462 45.7109C123.467 45.7109 123.472 45.7109 123.477 45.7109C123.482 45.7109 123.487 45.7109 123.491 45.7109C123.495 45.7109 123.5 45.7109 123.504 45.7109C123.508 45.7109 123.511 45.7109 123.515 45.7109C123.519 45.7109 123.522 45.7109 123.525 45.7109C123.529 45.7109 123.532 45.7109 123.534 45.7109C123.537 45.7109 123.54 45.7109 123.542 45.7109C123.545 45.7109 123.547 45.7109 123.549 45.7109C123.551 45.7109 123.553 45.7109 123.554 45.7109C123.556 45.7109 123.557 45.7109 123.559 45.7109C123.56 45.7109 123.561 45.7109 123.562 45.7109C123.562 45.7109 123.563 45.7109 123.563 45.7109C123.564 45.7109 123.564 45.7109 123.564 35.7109Z" fill="#C7C7C7" mask="url(#path-3-outside-1_2248_29931)"/>
</svg>
