<svg width="160" height="160" viewBox="0 0 160 160" fill="none" xmlns="http://www.w3.org/2000/svg">
<path d="M80.0002 133.333C83.6821 133.333 86.6668 130.349 86.6668 126.667C86.6668 122.985 83.6821 120 80.0002 120C76.3183 120 73.3335 122.985 73.3335 126.667C73.3335 130.349 76.3183 133.333 80.0002 133.333Z" fill="#C7C7C7"/>
<path d="M82.9335 73.3333L70.2668 60.7333L53.8669 44.4666L43.5335 34.1333L31.4002 21.9333C30.7786 21.3117 30.0407 20.8186 29.2285 20.4822C28.4164 20.1458 27.5459 19.9727 26.6669 19.9727C25.7878 19.9727 24.9173 20.1458 24.1052 20.4822C23.293 20.8186 22.5551 21.3117 21.9335 21.9333C20.6782 23.1886 19.9729 24.8913 19.9729 26.6666C19.9729 28.4419 20.6782 30.1446 21.9335 31.3999L31.1335 40.5333L40.8669 50.2666L55.7335 65.1999L66.0669 75.4666L84.3335 93.7333L102.934 112.4L128.6 138.067C129.22 138.691 129.957 139.187 130.77 139.526C131.582 139.864 132.453 140.039 133.334 140.039C134.214 140.039 135.085 139.864 135.897 139.526C136.71 139.187 137.447 138.691 138.067 138.067C138.692 137.447 139.188 136.71 139.526 135.897C139.865 135.085 140.039 134.213 140.039 133.333C140.039 132.453 139.865 131.582 139.526 130.769C139.188 129.957 138.692 129.22 138.067 128.6L82.9335 73.3333ZM144.8 52.8666C127.436 36.0277 104.188 26.6279 80.0002 26.6666C69.9366 26.6939 59.9427 28.337 50.4002 31.5333L61.2002 42.3333C74.2788 39.0653 87.9748 39.1869 100.993 42.6865C114.012 46.1861 125.923 52.9481 135.6 62.3333C136.836 63.5245 138.484 64.1931 140.2 64.1999C141.098 64.1965 141.986 64.0117 142.811 63.6566C143.636 63.3014 144.381 62.7833 145 62.1333C146.175 60.8644 146.811 59.1885 146.774 57.4595C146.737 55.7305 146.029 54.0836 144.8 52.8666ZM25.4669 44.3333C21.8497 46.9347 18.4191 49.7861 15.2002 52.8666C14.0751 54.1176 13.4647 55.7478 13.4913 57.4301C13.518 59.1124 14.1797 60.7225 15.3439 61.9372C16.508 63.152 18.0885 63.8816 19.7681 63.9798C21.4478 64.078 23.1024 63.5375 24.4002 62.4666C27.7249 59.3248 31.2914 56.4493 35.0669 53.8666L25.4669 44.3333ZM113.334 87.5999C113.951 88.2299 114.687 88.731 115.5 89.0743C116.312 89.4176 117.185 89.5963 118.067 89.5999C119.37 89.595 120.642 89.2084 121.728 88.488C122.813 87.7676 123.664 86.7449 124.175 85.5463C124.685 84.3477 124.834 83.0258 124.601 81.7439C124.369 80.462 123.766 79.2763 122.867 78.3333C117.306 72.5717 110.649 67.9813 103.287 64.8327C95.925 61.6841 88.0072 60.0409 80.0002 59.9999H78.9335L94.6002 75.6666C101.714 78.0787 108.14 82.1724 113.334 87.5999ZM49.5335 68.3999C44.8749 71.1133 40.6126 74.4559 36.8669 78.3333C35.638 79.6328 34.9758 81.3673 35.0258 83.1552C35.0758 84.943 35.834 86.6378 37.1335 87.8666C38.4331 89.0954 40.1676 89.7577 41.9554 89.7077C43.7433 89.6577 45.438 88.8995 46.6669 87.5999C50.5507 83.7387 55.0585 80.5607 60.0002 78.1999L49.5335 68.3999ZM56.8669 102.667C55.5938 103.895 54.8611 105.58 54.8298 107.349C54.8143 108.225 54.9715 109.095 55.2925 109.91C55.6134 110.726 56.0917 111.47 56.7002 112.1C57.3086 112.73 58.0353 113.235 58.8387 113.584C59.642 113.934 60.5064 114.122 61.3823 114.137C63.1514 114.168 64.8605 113.495 66.1335 112.267C69.5656 109.101 73.9797 107.209 78.6387 106.906C83.2978 106.602 87.92 107.906 91.7335 110.6L74.9335 93.7999C68.1416 94.8235 61.8317 97.9202 56.8669 102.667Z" fill="#C7C7C7"/>
</svg>
