<svg width="258" height="256" viewBox="0 0 258 256" fill="none" xmlns="http://www.w3.org/2000/svg">
<path d="M0.5 225.103V194.207H62.5345V256H0.5V225.103ZM53.6724 225.103V203.034H9.36207V247.172H53.6724V225.103ZM18.2241 225.103V211.862H44.8103V238.345H18.2241V225.103ZM80.2586 251.586V247.172H71.3966V229.517H80.2586V203.034H89.1207V194.207H71.3966V185.379H35.9483V176.552H44.8103V167.724H27.0862V185.379H18.2241V176.552H0.5V167.724H18.2241V150.069H9.36207V158.897H0.5V141.241H18.2241V150.069H27.0862V158.897H35.9483V150.069H44.8103V158.897H62.5345V150.069H53.6724V141.241H27.0862V132.414H53.6724V123.586H27.0862V114.759H18.2241V123.586H0.5V97.1035H9.36207V105.931H62.5345V97.1035H53.6724V88.2759H35.9483V97.1035H27.0862V88.2759H9.36207V70.6207H27.0862V88.2759H35.9483V79.4483H53.6724V70.6207H62.5345V79.4483H53.6724V88.2759H62.5345V97.1035H71.3966V79.4483H80.2586V70.6207H71.3966V44.1379H89.1207V52.9655H97.9828V61.7931H89.1207V70.6207H97.9828V123.586H80.2586V114.759H71.3966V123.586H62.5345V132.414H53.6724V141.241H62.5345V150.069H71.3966V158.897H89.1207V150.069H80.2586V141.241H71.3966V132.414H89.1207V150.069H97.9828V132.414H106.845V150.069H115.707V123.586H124.569V114.759H133.431V123.586H124.569V132.414H133.431V141.241H160.017V132.414H151.155V123.586H142.293V105.931H133.431V97.1035H142.293V88.2759H151.155V79.4483H142.293V70.6207H133.431V88.2759H124.569V79.4483H115.707V88.2759H106.845V79.4483H115.707V70.6207H106.845V44.1379H97.9828V35.3103H106.845V44.1379H115.707V8.82759H124.569V26.4828H142.293V17.6552H133.431V0H151.155V8.82759H142.293V17.6552H160.017V8.82759H168.879V0H186.603V26.4828H168.879V17.6552H160.017V35.3103H168.879V61.7931H177.741V52.9655H186.603V97.1035H204.328V88.2759H195.466V70.6207H213.19V97.1035H230.914V88.2759H222.052V70.6207H230.914V88.2759H239.776V79.4483H257.5V97.1035H248.638V88.2759H239.776V97.1035H230.914V123.586H239.776V132.414H230.914V141.241H213.19V150.069H204.328V158.897H186.603V150.069H177.741V141.241H168.879V158.897H177.741V167.724H204.328V176.552H222.052V167.724H213.19V158.897H222.052V150.069H230.914V158.897H239.776V167.724H248.638V150.069H239.776V141.241H257.5V167.724H248.638V185.379H257.5V203.034H248.638V229.517H257.5V238.345H230.914V256H204.328V247.172H222.052V238.345H204.328V220.69H195.466V238.345H186.603V247.172H195.466V256H177.741V229.517H168.879V247.172H160.017V238.345H151.155V203.034H160.017V229.517H168.879V203.034H177.741V185.379H168.879V176.552H160.017V167.724H168.879V158.897H160.017V150.069H151.155V185.379H160.017V194.207H142.293V211.862H133.431V229.517H142.293V238.345H133.431V247.172H151.155V256H133.431V247.172H124.569V238.345H115.707V256H80.2586V251.586ZM106.845 238.345V229.517H115.707V203.034H97.9828V211.862H106.845V220.69H89.1207V229.517H80.2586V238.345H89.1207V247.172H106.845V238.345ZM230.914 229.517V220.69H239.776V203.034H248.638V194.207H239.776V167.724H230.914V194.207H239.776V203.034H230.914V211.862H222.052V238.345H230.914V229.517ZM186.603 225.103V220.69H177.741V229.517H186.603V225.103ZM133.431 207.448V203.034H124.569V211.862H133.431V207.448ZM213.19 198.621V185.379H186.603V211.862H213.19V198.621ZM195.466 198.621V194.207H204.328V203.034H195.466V198.621ZM124.569 189.793V185.379H142.293V176.552H124.569V167.724H115.707V176.552H124.569V185.379H106.845V176.552H97.9828V185.379H89.1207V176.552H80.2586V167.724H71.3966V158.897H62.5345V167.724H53.6724V176.552H62.5345V167.724H71.3966V176.552H80.2586V185.379H89.1207V194.207H124.569V189.793ZM97.9828 163.31V158.897H89.1207V167.724H97.9828V163.31ZM142.293 158.897V150.069H124.569V158.897H133.431V167.724H142.293V158.897ZM195.466 145.655V141.241H186.603V150.069H195.466V145.655ZM213.19 136.828V132.414H222.052V105.931H213.19V114.759H204.328V123.586H195.466V114.759H177.741V105.931H168.879V97.1035H177.741V70.6207H168.879V61.7931H160.017V52.9655H151.155V61.7931H142.293V35.3103H151.155V44.1379H160.017V35.3103H151.155V26.4828H142.293V35.3103H133.431V61.7931H142.293V70.6207H151.155V61.7931H160.017V88.2759H151.155V97.1035H142.293V105.931H151.155V123.586H160.017V114.759H177.741V123.586H186.603V132.414H204.328V141.241H213.19V136.828ZM204.328 128V123.586H213.19V132.414H204.328V128ZM62.5345 119.172V114.759H71.3966V105.931H62.5345V114.759H53.6724V123.586H62.5345V119.172ZM89.1207 101.517V97.1035H80.2586V105.931H89.1207V101.517ZM89.1207 57.3793V52.9655H80.2586V61.7931H89.1207V57.3793ZM124.569 52.9655V44.1379H115.707V61.7931H124.569V52.9655ZM177.741 13.2414V8.82759H168.879V17.6552H177.741V13.2414ZM248.638 251.586V247.172H257.5V256H248.638V251.586ZM248.638 123.586V114.759H239.776V105.931H248.638V114.759H257.5V132.414H248.638V123.586ZM0.5 30.8966V0H62.5345V61.7931H0.5V30.8966ZM53.6724 30.8966V8.82759H9.36207V52.9655H53.6724V30.8966ZM18.2241 30.8966V17.6552H44.8103V44.1379H18.2241V30.8966ZM195.466 30.8966V0H257.5V61.7931H195.466V30.8966ZM248.638 30.8966V8.82759H204.328V52.9655H248.638V30.8966ZM213.19 30.8966V17.6552H239.776V44.1379H213.19V30.8966ZM71.3966 30.8966V26.4828H80.2586V35.3103H71.3966V30.8966ZM89.1207 22.069V17.6552H80.2586V0H89.1207V8.82759H97.9828V0H106.845V8.82759H97.9828V26.4828H89.1207V22.069Z" fill="black"/>
</svg>
