<svg width="31" height="32" viewBox="0 0 31 32" fill="none" xmlns="http://www.w3.org/2000/svg">
<path d="M12.5938 5.34375H6.78125C6.26739 5.34375 5.77458 5.54788 5.41123 5.91123C5.04788 6.27458 4.84375 6.76739 4.84375 7.28125V13.0938C4.84375 13.6076 5.04788 14.1004 5.41123 14.4638C5.77458 14.8271 6.26739 15.0312 6.78125 15.0312H12.5938C13.1076 15.0312 13.6004 14.8271 13.9638 14.4638C14.3271 14.1004 14.5312 13.6076 14.5312 13.0938V7.28125C14.5312 6.76739 14.3271 6.27458 13.9638 5.91123C13.6004 5.54788 13.1076 5.34375 12.5938 5.34375ZM12.5938 13.0938H6.78125V7.28125H12.5938V13.0938ZM12.5938 16.9688H6.78125C6.26739 16.9688 5.77458 17.1729 5.41123 17.5362C5.04788 17.8996 4.84375 18.3924 4.84375 18.9062V24.7188C4.84375 25.2326 5.04788 25.7254 5.41123 26.0888C5.77458 26.4521 6.26739 26.6562 6.78125 26.6562H12.5938C13.1076 26.6562 13.6004 26.4521 13.9638 26.0888C14.3271 25.7254 14.5312 25.2326 14.5312 24.7188V18.9062C14.5312 18.3924 14.3271 17.8996 13.9638 17.5362C13.6004 17.1729 13.1076 16.9688 12.5938 16.9688ZM12.5938 24.7188H6.78125V18.9062H12.5938V24.7188ZM24.2188 5.34375H18.4062C17.8924 5.34375 17.3996 5.54788 17.0362 5.91123C16.6729 6.27458 16.4688 6.76739 16.4688 7.28125V13.0938C16.4688 13.6076 16.6729 14.1004 17.0362 14.4638C17.3996 14.8271 17.8924 15.0312 18.4062 15.0312H24.2188C24.7326 15.0312 25.2254 14.8271 25.5888 14.4638C25.9521 14.1004 26.1562 13.6076 26.1562 13.0938V7.28125C26.1562 6.76739 25.9521 6.27458 25.5888 5.91123C25.2254 5.54788 24.7326 5.34375 24.2188 5.34375ZM24.2188 13.0938H18.4062V7.28125H24.2188V13.0938ZM16.4688 21.8125V17.9375C16.4688 17.6806 16.5708 17.4342 16.7525 17.2525C16.9342 17.0708 17.1806 16.9688 17.4375 16.9688C17.6944 16.9688 17.9408 17.0708 18.1225 17.2525C18.3042 17.4342 18.4062 17.6806 18.4062 17.9375V21.8125C18.4062 22.0694 18.3042 22.3158 18.1225 22.4975C17.9408 22.6792 17.6944 22.7812 17.4375 22.7812C17.1806 22.7812 16.9342 22.6792 16.7525 22.4975C16.5708 22.3158 16.4688 22.0694 16.4688 21.8125ZM26.1562 19.875C26.1562 20.1319 26.0542 20.3783 25.8725 20.56C25.6908 20.7417 25.4444 20.8438 25.1875 20.8438H22.2812V25.6875C22.2812 25.9444 22.1792 26.1908 21.9975 26.3725C21.8158 26.5542 21.5694 26.6562 21.3125 26.6562H17.4375C17.1806 26.6562 16.9342 26.5542 16.7525 26.3725C16.5708 26.1908 16.4688 25.9444 16.4688 25.6875C16.4688 25.4306 16.5708 25.1842 16.7525 25.0025C16.9342 24.8208 17.1806 24.7188 17.4375 24.7188H20.3438V17.9375C20.3438 17.6806 20.4458 17.4342 20.6275 17.2525C20.8092 17.0708 21.0556 16.9688 21.3125 16.9688C21.5694 16.9688 21.8158 17.0708 21.9975 17.2525C22.1792 17.4342 22.2812 17.6806 22.2812 17.9375V18.9062H25.1875C25.4444 18.9062 25.6908 19.0083 25.8725 19.19C26.0542 19.3717 26.1562 19.6181 26.1562 19.875ZM26.1562 23.75V25.6875C26.1562 25.9444 26.0542 26.1908 25.8725 26.3725C25.6908 26.5542 25.4444 26.6562 25.1875 26.6562C24.9306 26.6562 24.6842 26.5542 24.5025 26.3725C24.3208 26.1908 24.2188 25.9444 24.2188 25.6875V23.75C24.2188 23.4931 24.3208 23.2467 24.5025 23.065C24.6842 22.8833 24.9306 22.7812 25.1875 22.7812C25.4444 22.7812 25.6908 22.8833 25.8725 23.065C26.0542 23.2467 26.1562 23.4931 26.1562 23.75Z" fill="#FA4A0C"/>
</svg>
